<?xml version="1.0" encoding="utf-8"?>
<!-- Generator: Adobe Illustrator 28.0.0, SVG Export Plug-In . SVG Version: 6.00 Build 0)  -->
<svg version="1.1" id="Layer_1" xmlns="http://www.w3.org/2000/svg" xmlns:xlink="http://www.w3.org/1999/xlink" x="0px" y="0px"
	 viewBox="0 0 1024 1024" style="enable-background:new 0 0 1024 1024;" xml:space="preserve">
<style type="text/css">
	.st0{clip-path:url(#SVGID_00000181782958135846529820000016731063473179908752_);fill:#FFFFFF;}
	.st1{fill:#9BA26D;}
	.st2{fill:#BECC63;}
</style>
<g>
	<defs>
		<rect id="SVGID_1_" x="-2" y="-1" width="1024" height="1024"/>
	</defs>
	<clipPath id="SVGID_00000112615247247244542030000011453704226807031486_">
		<use xlink:href="#SVGID_1_"  style="overflow:visible;"/>
	</clipPath>
	<path style="clip-path:url(#SVGID_00000112615247247244542030000011453704226807031486_);fill:#FFFFFF;" d="M913.1,1023H106.9
		C47,1023-2,974-2,914.1V107.9C-2,48,47-1,106.9-1h806.2C973-1,1022,48,1022,107.9v806.2C1022,974,973,1023,913.1,1023"/>
</g>
<g>
	<path class="st1" d="M447.5,67.4c-0.3-1.1-0.6-1.9-1.3-2.7c-0.2-0.3-0.5-0.5-0.6-0.6c-0.5-0.5-0.8-1-1.3-1.3
		c-0.3-0.2-0.6-0.3-1-0.5c-0.5-0.2-1-0.5-1.4-0.6c-0.3,0-0.6,0-1,0c-0.5,0-1-0.2-1.4,0c-0.5,0-1.1,0.2-1.6,0.3
		c-0.3,0.2-0.8,0.2-1.1,0.3c-0.5,0.2-1,0.5-1.4,0.8c-0.3,0.2-0.6,0.3-1,0.6c-0.5,0.5-0.8,1-1.1,1.6c-0.2,0.3-0.5,0.5-0.5,0.8
		c-0.3,1-0.6,1.9-0.6,3.2v114.6l67.8,89.5L447.5,67.4z"/>
	<path class="st2" d="M588.5,69.2c0-1.3-0.3-2.3-0.6-3.2c-0.2-0.3-0.3-0.5-0.5-0.8c-0.3-0.6-0.6-1.1-1.1-1.6c-0.3-0.3-0.6-0.5-1-0.6
		c-0.5-0.3-1-0.6-1.4-0.8c-0.3-0.2-0.8-0.2-1.1-0.3c-0.5-0.2-1.1-0.3-1.6-0.3s-1,0-1.4,0c-0.3,0-0.6,0-1.1,0.2
		c-0.5,0.2-1,0.3-1.4,0.6c-0.3,0.2-0.6,0.3-1,0.5c-0.5,0.3-1,0.8-1.3,1.3c-0.2,0.2-0.5,0.3-0.6,0.6c-0.5,0.8-1,1.6-1.3,2.7
		l-52.3,206.2l67.9-89.6V69.2z"/>
	<path class="st1" d="M432.1,258.3l68.1,50.1l-68.1-96.4l-3.7-5.2l-12.7-17.5l-69.4-95.8l0,0c-0.8-1-1.6-1.6-2.6-2.3
		c-0.3-0.2-0.5-0.3-0.8-0.3c-0.8-0.3-1.8-0.6-2.7-0.6c-0.2,0-0.2,0-0.3,0c-1,0-1.8,0.2-2.6,0.5c-0.2,0.2-0.5,0.2-0.6,0.3
		c-0.6,0.3-1.1,0.6-1.6,1c-0.2,0.2-0.5,0.5-0.6,0.6c-0.5,0.5-0.8,1-1.1,1.6c-0.2,0.3-0.3,0.5-0.5,0.8c-0.3,1-0.6,1.9-0.6,3.1v84.3
		l83.5,63.4L432.1,258.3z"/>
	<path class="st1" d="M437.1,282.4l-4.8-3.5v0l-16.4-12.4l-83.5-63.4l-16.4-12.4l-76.1-57.8c-0.6-0.5-1.4-1-2.3-1.1
		c-0.3-0.2-0.5-0.2-0.8-0.2c-0.5-0.2-1-0.2-1.4-0.3c-0.2,0-0.5,0-0.6,0c-0.6,0-1.4,0.2-2.1,0.5c-0.2,0-0.5,0.2-0.6,0.2
		c-0.8,0.3-1.6,0.8-2.3,1.4c-0.2,0.2-0.2,0.2-0.3,0.3c-0.5,0.5-1,1.1-1.3,1.9c-0.2,0.2-0.2,0.5-0.3,0.6c-0.3,0.8-0.6,1.8-0.6,2.9
		v63.4l88.7,33.8l16.6,6.1l83.5,31.9l16.4,6.3v0L437.1,282.4z"/>
	<path class="st2" d="M792.9,136.1c-0.2-0.2-0.2-0.5-0.3-0.6c-0.3-0.6-0.8-1.3-1.3-1.9c-0.2-0.2-0.2-0.2-0.3-0.3
		c-0.6-0.6-1.4-1.1-2.3-1.4c-0.2-0.2-0.5-0.2-0.6-0.2c-0.6-0.2-1.4-0.3-2.1-0.5c-0.2,0-0.5,0-0.6,0c-0.5,0-1,0.2-1.4,0.3
		c-0.3,0-0.5,0-0.8,0.2c-0.8,0.3-1.4,0.6-2.3,1.1l-76.1,57.8l-16.4,12.4l-83.4,63.4l-16.4,12.4v0l-4.8,3.5l4.8-1.8v0l16.4-6.3
		l83.5-31.9l16.4-6.3l88.7-33.8V139C793.6,138.1,793.2,137.1,792.9,136.1z"/>
	<path class="st2" d="M687.8,95.1c-0.2-0.3-0.3-0.5-0.5-0.8c-0.3-0.6-0.6-1.1-1.1-1.6c-0.2-0.2-0.5-0.5-0.6-0.6
		c-0.5-0.5-1.1-0.8-1.6-1c-0.2-0.2-0.5-0.3-0.6-0.3c-0.8-0.3-1.8-0.5-2.6-0.5c-0.2,0-0.2,0-0.3,0c-1,0-1.8,0.3-2.7,0.6
		c-0.3,0.2-0.5,0.2-0.8,0.3c-1,0.5-1.8,1.1-2.6,2.3l-69.4,95.8l-12.7,17.5l-3.7,5.2l-68.1,96.4l68.1-50.1v-0.2l16.4-12.4l83.5-63.4
		V98.1C688.5,97,688.1,96,687.8,95.1z"/>
	<path class="st2" d="M901.9,208.5c0.3-0.5,0-1.1-0.2-1.6c-0.3-1.3-0.8-2.4-1.4-3.5c-0.3-0.6-0.6-1.1-1-1.8c-0.6-1-1.3-1.9-2.1-2.9
		c-0.3-0.5-0.8-1-1.1-1.4c-1-1-1.9-1.9-3.1-2.7c-0.3-0.3-0.6-0.5-1-0.8c-1.4-1-3.1-1.8-4.7-2.4c-0.3-0.2-0.8-0.2-1.3-0.3
		c-1.3-0.5-2.6-0.8-4-1c-0.6-0.2-1.3-0.2-1.9-0.2c-1.3-0.2-2.6-0.2-3.9,0c-0.5,0-1,0-1.6,0.2c-1.8,0.3-3.7,0.6-5.5,1.3L810,213.9
		l-16.4,6.3l-88.7,33.8l-16.4,6.3l-83.5,31.9l-16.4,6.3L537.2,318l-10.5,4l-7.2,2.7l-9.2,3.4v10.1v0.2v611l0,9.9c0,0,0,0,0,0
		c37.4-103.5,106-267.1,57.8-487.6c0,0,90.9,110.9,88.8,223.9c0,0,138.4-73.9,216-26.4c0,0,0,0-0.1,0
		c-3.8,0.8-224.7,49.4-347.7,285.3c0,0,25.6-9.3,25.6-9.3l65-23.8l270.5-99c9.7-3.5,16.3-12.9,16.3-23.2V214.3
		C902.5,212.4,902.2,210.5,901.9,208.5z M714.7,641.8c-28,0-50.7-22.7-50.7-50.7c0-28,22.7-50.7,50.7-50.7c28,0,50.7,22.7,50.7,50.7
		C765.5,619.1,742.9,641.8,714.7,641.8z"/>
	<path class="st1" d="M151.6,574.5c103.8-34.4,206.6,36.1,206.6,36.1c-3.1-112.8,80.3-237.9,80.3-237.9
		c-39.9,179.8,33.5,479.4,70.8,583.9c0.3,1,0.6,1.8,1,2.7c0,0,0,0,0,0V363.5v-0.2v-25.1v-10.1l-8.2-3.2l-0.3-0.2l-0.6-0.2l-7.2-2.7
		l-10.5-4l-51.3-19.6l-16.4-6.3L332.3,260l-16.4-6.3L227.2,220l-16.4-6.3l-59.2-22.5c-1.8-0.6-3.7-1.1-5.5-1.3c-0.5,0-1-0.2-1.6-0.2
		c-1.3-0.2-2.6,0-3.9,0c-0.6,0-1.3,0.2-1.9,0.2c-1.3,0.2-2.7,0.6-4,1c-0.5,0.2-0.8,0.2-1.3,0.3c-1.6,0.6-3.2,1.4-4.7,2.4
		c-0.3,0.2-0.6,0.5-1,0.8c-1.1,0.8-2.1,1.8-3.1,2.7c-0.5,0.5-0.8,1-1.1,1.4c-0.8,1-1.4,1.9-2.1,2.9c-0.3,0.5-0.6,1.1-1,1.8
		c-0.5,1.1-1,2.3-1.4,3.5c-0.2,0.6-0.3,1.1-0.5,1.8c-0.5,1.8-0.6,3.7-0.6,5.8v584.5c0,10.3,6.4,19.6,16.3,23.2l358.4,131.3
		C352.7,606.6,151.6,574.5,151.6,574.5z M291.3,438.9c28,0,50.7,22.7,50.7,50.7c0,28-22.7,50.7-50.7,50.7c-28,0-50.7-22.9-50.7-50.7
		C240.6,461.7,263.2,438.9,291.3,438.9z"/>
</g>
</svg>
