<?xml version="1.0" encoding="UTF-8"?>
<svg xmlns="http://www.w3.org/2000/svg" xmlns:xlink="http://www.w3.org/1999/xlink" width="1024" height="1024" viewBox="0 0 1024 1024" version="1.1">
<defs>
<linearGradient id="linear0" gradientUnits="userSpaceOnUse" x1="120.78" y1="774.21" x2="464.98" y2="485.4" gradientTransform="matrix(2,0,0,2,-22,-702.2)">
<stop offset="0" style="stop-color:rgb(100%,100%,100%);stop-opacity:0.6;"/>
<stop offset="1" style="stop-color:rgb(100%,100%,100%);stop-opacity:1;"/>
</linearGradient>
</defs>
<g id="surface1">
<rect x="0" y="0" width="1024" height="1024" style="fill:rgb(63.921569%,63.921569%,63.921569%);fill-opacity:1;stroke:none;"/>
<path style=" stroke:none;fill-rule:nonzero;fill:rgb(20.392157%,22.745098%,19.215686%);fill-opacity:1;" d="M 62 62 L 962 62 L 962 962 L 62 962 Z M 62 62 "/>
<path style=" stroke:none;fill-rule:nonzero;fill:url(#linear0);" d="M 688.898438 223.058594 C 727.878906 220 775.839844 262 775.839844 262 L 841.839844 190 C 841.839844 190 787.839844 112 667.941406 121.039062 C 553.941406 130.039062 527.019531 213.980469 527.019531 270.941406 L 527.019531 348.941406 L 401.019531 348.941406 C 347.019531 351.941406 302.078125 363.941406 269.019531 393.921875 C 233.019531 420.898438 215.019531 462.878906 215.019531 516.839844 C 215.019531 561.820312 230.019531 597.800781 257.019531 621.78125 C 284 648.761719 317.019531 663.78125 359.019531 666.761719 L 431.019531 675.761719 C 449.019531 675.761719 464 681.761719 476 687.761719 C 488 696.761719 491 708.738281 491 726.738281 C 491 747.71875 482 765.71875 464.019531 777.699219 C 446.039062 789.679688 437.039062 795.699219 410.019531 795.699219 C 347.058594 795.699219 293.101562 771.699219 254.121094 726.738281 L 182.121094 801.679688 C 248.121094 864.640625 320.121094 897.679688 400.980469 897.679688 C 451.941406 897.679688 478.980469 885.679688 511.921875 867.679688 C 517.921875 864.679688 526.921875 858.679688 532.898438 855.679688 C 571.878906 828.699219 589.859375 786.71875 592.898438 735.679688 C 592.898438 690.699219 580.898438 654.71875 559.921875 627.679688 C 547.25 611.785156 530.726562 599.390625 511.921875 591.679688 C 493.921875 582.679688 472.941406 579.679688 445.921875 576.679688 L 379.921875 570.679688 C 355.921875 567.679688 337.921875 561.679688 328.960938 552.679688 C 316.960938 543.679688 313.960938 534.679688 313.960938 522.679688 C 325.960938 435.738281 526.839844 462.679688 526.839844 462.679688 L 526.839844 579.601562 C 544.839844 588.601562 610.839844 612.578125 613.78125 735.5 C 616.78125 846.441406 532.820312 882.421875 526.839844 888.398438 L 526.839844 903.398438 L 640.839844 903.398438 L 640.839844 462.921875 L 751.78125 462.921875 L 751.78125 352 L 638 352 L 638 271.039062 C 640.921875 250 656 226 688.898438 223.058594 Z M 688.898438 223.058594 "/>
</g>
</svg>
