<svg id="Layer_1" data-name="Layer 1" xmlns="http://www.w3.org/2000/svg" xmlns:xlink="http://www.w3.org/1999/xlink" viewBox="0 0 512 512"><defs><style>.cls-1{fill:#a3a3a3;}.cls-2{fill:#343a31;}.cls-3{fill:url(#linear-gradient);}</style><linearGradient id="linear-gradient" x1="120.78" y1="774.21" x2="464.98" y2="485.4" gradientTransform="translate(-11 -351.1)" gradientUnits="userSpaceOnUse"><stop offset="0" stop-color="#fff" stop-opacity="0.6"/><stop offset="1" stop-color="#fff"/></linearGradient></defs><rect id="Outer_Box" data-name="Outer Box" class="cls-1" width="512" height="512" transform="translate(512 512) rotate(180)"/><rect id="Inner_Box" data-name="Inner Box" class="cls-2" x="31" y="31" width="450" height="450"/><path id="Logo" class="cls-3" d="M344.45,111.53C363.94,110,387.92,131,387.92,131l33-36s-27-39-86.95-34.48c-57,4.5-70.46,46.47-70.46,74.95v39h-63c-27,1.5-49.47,7.5-66,22.49-18,13.49-27,34.48-27,61.46,0,22.49,7.5,40.48,21,52.47,13.49,13.49,30,21,51,22.49l36,4.5c9,0,16.49,3,22.49,6,6,4.5,7.5,10.49,7.5,19.49,0,10.49-4.5,19.49-13.49,25.48s-13.49,9-27,9c-31.48,0-58.46-12-77.95-34.48l-36,37.47c33,31.48,69,48,109.43,48,25.48,0,39-6,55.47-15,3-1.5,7.5-4.5,10.49-6,19.49-13.49,28.48-34.48,30-60,0-22.49-6-40.48-16.49-54a59.61,59.61,0,0,0-24-18c-9-4.5-19.49-6-33-7.5l-33-3c-12-1.5-21-4.5-25.48-9-6-4.5-7.5-9-7.5-15,6-43.47,106.44-30,106.44-30v58.46c9,4.5,42,16.49,43.47,77.95,1.5,55.47-40.48,73.46-43.47,76.45v7.5h57V231.46h55.47V176H319V135.52C320.46,125,328,113,344.45,111.53Z"/></svg>