<?xml version="1.0" encoding="utf-8"?>
<!-- Generator: Adobe Illustrator 25.2.3, SVG Export Plug-In . SVG Version: 6.00 Build 0)  -->
<svg version="1.1" id="Layer_1" xmlns="http://www.w3.org/2000/svg" xmlns:xlink="http://www.w3.org/1999/xlink" x="0px" y="0px"
	 viewBox="0 0 1024 1024" style="enable-background:new 0 0 1024 1024;" xml:space="preserve">
<style type="text/css">
	.st0{fill:#343A31;}
	.st1{fill:url(#SVGID_1_);}
</style>
<g id="surface1">
	<path class="st0" d="M0,0h1024v1024H0V0z"/>
	
		<linearGradient id="SVGID_1_" gradientUnits="userSpaceOnUse" x1="248.7121" y1="121.8315" x2="592.9598" y2="410.6816" gradientTransform="matrix(2 0 0 -2 -278 1089.8)">
		<stop  offset="0" style="stop-color:#FFFFFF;stop-opacity:0.6"/>
		<stop  offset="1" style="stop-color:#FFFFFF"/>
	</linearGradient>
	<path class="st1" d="M688.9,223.1c39-3.1,86.9,38.9,86.9,38.9l66-72c0,0-54-78-173.9-69C553.9,130,527,214,527,270.9v78H401
		c-54,3-98.9,15-132,45c-36,27-54,69-54,122.9c0,45,15,81,42,104.9c27,27,60,42,102,45l72,9c18,0,33,6,45,12c12,9,15,21,15,39
		c0,21-9,39-27,51s-27,18-54,18c-63,0-116.9-24-155.9-69l-72,74.9c66,63,138,96,218.9,96c51,0,78-12,110.9-30c6-3,15-9,21-12
		c39-27,57-69,60-120c0-45-12-81-33-108c-12.7-15.9-29.2-28.3-48-36c-18-9-39-12-66-15l-66-6c-24-3-42-9-51-18c-12-9-15-18-15-30
		c12-86.9,212.9-60,212.9-60v116.9c18,9,84,33,86.9,155.9c3,110.9-81,146.9-86.9,152.9v15h114V462.9h110.9V352H638v-81
		C640.9,250,656,226,688.9,223.1z"/>
</g>
</svg>
