<?xml version="1.0" encoding="utf-8"?>
<!-- Generator: Adobe Illustrator 23.1.0, SVG Export Plug-In . SVG Version: 6.00 Build 0)  -->
<svg version="1.1" id="Layer_1" xmlns="http://www.w3.org/2000/svg" xmlns:xlink="http://www.w3.org/1999/xlink" x="0px" y="0px"
	 viewBox="0 0 348.3 360.1" style="enable-background:new 0 0 348.3 360.1;" xml:space="preserve">
<g>
	<path d="M332.7,155L332.7,155h-24.2L240,104.5V155h-41.6V15.7c0-8.7-7-15.7-15.7-15.7l0,0h-167C7,0,0,7,0,15.7v173.6
		C0,198,7,205,15.7,205h26l67.8,50v-50H150v139.3c0,8.7,7,15.7,15.7,15.7h167c8.7,0,15.7-7,15.7-15.7l0,0V170.7
		C348.4,162,341.4,155,332.7,155z M157.8,70.5h-19.4c0.1,7.1-2,26.6-25.1,48.8l-2.5,2.1l0.9,0.7c11.4,8.9,24,16.1,37.4,21.4
		l-8.5,11.2c-17.4-7.6-31.1-15.5-41.9-23.4c-10.8,7.8-24.5,15.8-42,23.4l-8.4-11.2c13.4-5.4,26-12.6,37.4-21.4l0.8-0.7
		c-1-0.9-1.8-1.6-2.3-2.2c-15.3-14.7-21.4-28.3-23.7-37.8h17.9c5.1,10.8,12,20.7,20.5,29.1c10.4-10.5,19.8-22.8,24.6-39.1H40.1v-15
		h53.3v-14h14v14h50.5v14.1H157.8z M289.3,311.3l-12.7-34.1H232l-13.7,34.1h-13.1l39.4-107.7H263l42,107.7H289.3z"/>
	<polygon class="st1" points="236.2,265 270.7,265 254.1,220.3 	"/>
</g>
</svg>
