<?xml version="1.0" encoding="utf-8"?>
<!-- Generator: Adobe Illustrator 28.1.0, SVG Export Plug-In . SVG Version: 6.00 Build 0)  -->
<svg version="1.1" id="Artwork" xmlns="http://www.w3.org/2000/svg" xmlns:xlink="http://www.w3.org/1999/xlink" x="0px" y="0px"
	 viewBox="0 0 1594.51 950" style="enable-background:new 0 0 1594.51 950;" xml:space="preserve">
<style type="text/css">
	.st0{display:none;}
	.st1{display:inline;fill:#0EA5DF;}
	.st2{display:inline;fill:#4ABCE7;}
	.st3{display:inline;}
	.st4{fill:#0EA5DF;}
	.st5{fill:#4ABCE7;}
	.st6{opacity:0.26;fill:none;}
	.st7{fill:#FFFFFF;}
	.st8{fill:#215EAC;}
</style>
<g id="Andika_2" class="st0">
	<polygon class="st1" points="767.54,99.83 682.61,99.83 100.89,99.83 100.89,358.61 100.89,546.65 100.89,849.78 768.35,849.78 
		768.35,99.83 	"/>
	<path class="st2" d="M678.41,436.6c-10.01-12.12-23.82-23.02-41.42-32.7c-17.6-9.69-40.29-16.8-68.07-21.32l-21.8,70.73
		c15.18,0.65,27.53,3.08,37.07,7.27c9.52,4.2,17.03,9.13,22.52,14.78c5.49,5.65,9.21,11.79,11.14,18.41
		c1.94,6.62,2.75,12.68,2.42,18.16c0,13.9-4.2,26.41-12.6,37.55c-8.4,11.15-19.62,21.55-33.67,31.25
		c-14.05,9.69-30.45,18.97-49.17,27.86c-18.74,8.88-38.28,17.86-58.63,26.89c-0.97,0.65-2.42,1.3-4.36,1.94
		c-7.76-3.88-15.26-7.82-22.53-11.87c-7.27-4.04-14.29-7.99-21.08-11.87l-4.84-2.41c18.74-13.57,35.07-29.58,48.96-48
		c13.9-18.43,25.46-38.63,34.67-60.62c9.22-21.98,16.09-45.18,20.61-69.59s6.79-49.55,6.79-75.39c0-48.5-7.36-91.57-22.07-129.24
		c-14.71-37.65-34.51-69.25-59.4-94.79c-12.36-12.68-25.69-23.83-39.96-33.48H105.37c-1.38,0.9-2.83,1.67-4.19,2.6v111.22
		c4.53-7.15,9.31-14.04,14.61-20.34c16.31-19.38,35.85-34.32,58.63-44.81c22.77-10.49,47.88-15.74,75.33-15.74
		c27.13,0,51.91,5.41,74.37,16.23c22.44,10.82,41.67,26.32,57.65,46.5c15.99,20.19,28.42,44.82,37.3,73.88
		c8.88,29.07,13.32,61.7,13.32,97.87c0,34.88-4.6,66.05-13.81,93.5c-9.2,27.45-21.88,50.8-38.03,70.01
		c-16.15,19.22-35.45,33.84-57.89,43.84c-22.45,10.02-46.75,15.03-72.91,15.03c-28.1,0-53.54-5.49-76.3-16.48
		c-22.77-10.97-42.32-26.56-58.63-46.75c-4.93-6.1-9.4-12.74-13.64-19.65v120.09c12.43,7.84,25.4,14.81,39.22,20.42
		c32.65,13.26,66.92,19.89,102.8,19.89c25.86,0,50.76-3.39,74.68-10.18c7.43,0.64,16.4,2.74,26.91,6.3
		c10.51,3.55,21.9,8.07,34.19,13.56c-18.09,9.37-35.21,19.71-51.35,31.01c-16.15,11.3-31.01,24.06-44.57,38.27l51.35,51.83
		c15.82-19.38,33.92-36.09,54.27-50.14c20.36-14.05,41.84-26.73,64.45-38.02c23.25,10.33,46.51,19.29,69.76,26.89
		c23.25,7.59,44.57,11.39,63.95,11.39c5.49,0,10.9-1.78,16.23-5.33c5.33-3.56,10.42-7.91,15.26-13.08
		c4.85-5.17,9.28-10.66,13.32-16.48c4.04-5.81,7.67-11.14,10.9-15.99l10.17-13.56c-21.97-0.97-41.99-2.83-60.07-5.57
		c-18.09-2.75-34.88-6.22-50.39-10.42c21.32-9.69,41.74-19.71,61.29-30.04c19.54-10.33,36.65-21.71,51.35-34.16
		c14.69-12.42,26.4-26.23,35.12-41.42c8.72-15.17,13.08-32.62,13.08-52.33c0.32-10.97-1.21-22.92-4.6-35.85
		C695.13,461.23,688.42,448.7,678.41,436.6z"/>
</g>
<g id="Andika_1" class="st0">
	<g class="st3">
		<polygon class="st4" points="767.54,99.83 682.61,99.83 100.89,99.83 100.89,358.61 100.89,546.65 100.89,849.78 768.35,849.78 
			768.35,99.83 		"/>
		<path class="st5" d="M287.63,100.15H174.54c-5.6,17.42-8.44,35.76-8.44,55.08c0,23.62,3.67,46.02,11.05,67.22
			c7.38,21.22,19.09,39.84,35.14,55.89c16.05,16.05,36.89,28.77,62.52,38.17c25.63,9.41,56.52,14.11,92.66,14.11
			c18.07,0,35.68-1.92,52.83-5.8c17.15-3.88,34.02-8.95,50.62-15.23L182.7,666.42l70.81,64.73c23.6-23.24,47.66-44.35,72.19-63.34
			c24.53-19,48.78-35.23,72.75-48.7c23.96-13.46,47.39-23.88,70.26-31.26c22.86-7.38,44.63-11.07,65.28-11.07
			c14.38,0,26.47,1.67,36.24,4.98c9.77,3.33,17.78,7.85,24.06,13.56c6.27,5.72,10.78,12.19,13.56,19.37
			c2.76,7.19,4.15,14.66,4.15,22.4c0,19.93-8.12,40.58-24.34,61.97c-16.24,21.39-39.29,40.94-69.16,58.63l50.9,78.56
			c32.44-20.65,58.82-40.39,79.11-59.18c20.29-18.81,36.15-37.16,47.58-55.05c11.43-17.88,19.17-35.58,23.24-53.11
			c4.05-17.51,6.09-35.5,6.09-53.95c0-16.58-2.96-32.9-8.86-48.95c-5.9-16.05-15.21-30.52-27.93-43.43
			c-12.72-12.91-29.23-23.33-49.5-31.26c-20.29-7.93-44.63-11.9-73.04-11.9c-26.19,0-50.34,3.04-72.47,9.13
			c-22.13,6.09-43.15,13.92-63.06,23.51l279.38-344.11l-70.81-64.73c-15.5,16.6-32.55,33.11-51.19,49.52
			c-18.63,16.43-38.64,31.09-60.02,43.98c-21.39,12.91-43.89,23.33-67.49,31.26c-23.62,7.93-47.77,11.89-72.49,11.89
			c-35.79,0-63.81-7.93-84.09-23.79c-20.29-15.86-30.43-37.98-30.43-66.38c0-16.22,3.22-30.24,9.68-42.04
			C284.53,105.04,286.04,102.55,287.63,100.15z"/>
	</g>
</g>
<g id="Abbysinica" class="st0">
	<g class="st3">
		<polygon class="st4" points="767.54,99.83 682.61,99.83 100.89,99.83 100.89,358.61 100.89,546.65 100.89,849.78 768.35,849.78 
			768.35,99.83 		"/>
		<path class="st5" d="M731.99,647.24c-18.31-6.84-42.64-10.27-72.94-10.27c-16.99,0-35.23,1.69-54.71,5.01
			c-19.5,3.35-38.72,7.34-57.72,12.03c-18.98,4.67-36.89,9.68-53.71,15.01c-16.82,5.34-30.9,10.02-42.22,14.02l7.98-77.59
			c38.88-2.01,72.37-8.01,100.46-18.02c28.07-10.02,51.26-22.95,69.54-38.81c18.29-15.84,31.82-33.78,40.63-53.81
			c8.81-20.02,13.22-40.86,13.22-62.57c0-19.69-2.75-36.37-8.25-50.06c-5.51-13.68-12.83-24.79-21.99-33.3
			c-9.17-8.51-19.66-14.68-31.47-18.52c-11.83-3.83-24.07-5.76-36.72-5.76c-17.66,0-35.16,0.76-52.48,2.26
			c-17.31,1.5-32.31,3.08-44.96,4.75l13.5-123.15l56.45-8.01c2.34,7.01,6.17,13.76,11.5,20.28c5.32,6.51,11.74,12.35,19.24,17.52
			c7.5,5.18,15.74,9.35,24.73,12.52c8.99,3.17,18.16,4.75,27.48,4.75c7.32,0,14.49-0.67,21.49-2c7-1.34,14.25-3.43,21.79-6.27
			c7.52-2.83,15.49-6.33,23.9-10.51c8.41-4.17,17.83-9.1,28.27-14.76c-5.68-5.67-10.83-11.02-15.49-16.02
			c-4.67-5.01-8.75-10.27-12.24-15.78c-3.49-5.5-6.24-11.42-8.23-17.77c-2.01-6.34-3.01-13.52-3.01-21.53
			c0-7.01,0.82-14.85,2.49-23.53c1.37-7.14,4.35-16.22,8.89-27.21H595.8c-4.3,2.17-8.29,4.57-11.96,7.19
			c-9.82,7.01-17.48,15.35-22.99,25.03c-5.49,9.68-9.23,20.37-11.23,32.05l-247.34,36.04c-8.66-16.67-20.74-28.94-36.22-36.79
			c-15.49-7.84-32.4-11.77-50.72-11.77c-7.65,0-15.91,0.5-24.73,1.51c-8.84,1-17.57,2.5-26.24,4.5c-8.66,2-16.82,4.43-24.48,7.25
			c-7.67,2.84-13.99,5.94-18.99,9.27c5.66,5.68,10.41,11.01,14.24,16.02c3.83,5.01,7,10.1,9.49,15.26
			c2.51,5.18,4.33,10.77,5.51,16.78c1.17,6.01,1.75,13.01,1.75,21.02c0,12.35-1.84,23.96-5.5,34.8
			c-3.66,10.85-10.83,21.12-21.48,30.78c3.32,1.34,7.31,2.51,11.98,3.51c4,1,9.07,1.83,15.23,2.5c6.17,0.67,13.57,1,22.25,1
			c41.97,0,73.61-7.25,94.93-21.77c21.31-14.52,33.98-33.62,37.97-57.31l48.97-7.01l-11.98,110.63
			c-40.64,3.67-74.62,10.59-101.92,20.77c-27.32,10.18-49.22,23.04-65.72,38.55c-16.49,15.51-28.15,33.62-34.97,54.31
			c-6.83,20.69-10.25,43.38-10.25,68.08c0,18.69,2.51,34.63,7.5,47.8c5,13.19,11.74,24.03,20.24,32.54s18.48,14.7,29.99,18.52
			c11.49,3.84,23.56,5.75,36.22,5.75c3.99,0,9.49-0.5,16.49-1.5c6.98-1,14.65-2.17,22.97-3.5c8.32-1.33,16.82-2.84,25.48-4.51
			c8.66-1.67,16.66-3.33,23.98-5l-17.48,154.68c-1.33,11.69-2.49,22.44-3.49,32.29c-1,9.85-1.5,18.95-1.5,27.29
			c0,9.31,0.9,17.11,2.68,23.44h161.2v-5.92c-6.33-5.33-10.66-10.92-12.98-16.77c-2.34-5.84-3.5-14.59-3.5-26.28
			c0-2.33,0.08-5.5,0.25-9.51c0.16-4,0.42-8.16,0.75-12.51c0.32-4.34,0.67-8.51,1.01-12.52c0.33-4,0.66-7.17,1-9.51l3.99-35.04
			l41.97-15.52c-2.66,3.34-4.66,7.92-6,13.76c-1.33,5.84-2.41,12.1-3.24,18.78c-0.84,6.69-1.34,13.44-1.51,20.28
			c-0.17,6.84-0.24,12.94-0.24,18.26c0,9.35,0.83,18.45,2.49,27.29c1.67,8.85,4.41,16.69,8.25,23.53
			c3.81,6.84,8.9,12.35,15.23,16.52c3.72,2.44,8.02,4.15,12.88,5.16h20.72c4.3-0.94,8.67-2.48,13.12-4.67
			c7.82-3.83,15.91-8.08,24.24-12.77c8.33-4.67,17.06-8.93,26.22-12.77c9.17-3.84,18.57-5.76,28.24-5.76c4.66,0,9.82,0.5,15.49,1.5
			c5.66,1,11.57,2.08,17.74,3.26c6.16,1.17,12.31,2.25,18.49,3.25c6.16,1,12.07,1.5,17.73,1.5c12.33,0,24.57-1.58,36.72-4.75
			c12.16-3.18,22.99-8.27,32.48-15.28c0.41-0.31,0.8-0.64,1.21-0.95V666.96C759.03,659.41,746.92,652.82,731.99,647.24z
			 M484.17,366.15c2.66-0.67,5.4-1.17,8.24-1.5c2.83-0.33,5.24-0.5,7.25-0.5c5.99,0,11.74,1.76,17.23,5.25
			c5.5,3.5,10.32,8.43,14.5,14.77c4.16,6.34,7.57,13.93,10.25,22.77c2.65,8.86,3.99,18.62,3.99,29.29c0,11.35-1.34,24.7-3.99,40.05
			c-2.68,15.37-7,30.04-13,44.06c-6,14.01-13.82,25.86-23.49,35.54c-9.66,9.68-21.32,14.52-34.97,14.52c-1.34,0-2.67-0.17-3.99-0.52
			c-1.34-0.33-2.51-0.5-3.51-0.5L484.17,366.15z M318.29,575.4h-4.51c-20.98,0-35.64-6.42-43.97-19.27
			c-8.33-12.84-12.48-30.94-12.48-54.31c0-15.35,1.74-30.03,5.25-44.05c3.49-14.02,8.65-26.61,15.48-37.79
			c6.83-11.18,15.41-20.52,25.74-28.03c10.32-7.51,22.32-12.59,35.97-15.28L318.29,575.4z M665.04,747.36
			c-2.32,8.51-5.42,15.45-9.24,20.78c-3.83,5.34-8.25,9.27-13.24,11.77c-5,2.5-9.99,3.76-14.99,3.76c-5.33,0-9.75-0.5-13.24-1.5
			c-3.5-1-6.33-3-8.49-6.01c-2.17-3-3.68-7.08-4.51-12.27c-0.82-5.16-1.24-11.92-1.24-20.27c0-26.36,3.75-44.72,11.25-55.06
			c7.48-10.35,17.73-15.52,30.73-15.52c6.66,0,12.74,3.35,18.23,10.01c5.5,6.68,8.25,18.02,8.25,34.04
			C668.55,728.77,667.38,738.85,665.04,747.36z"/>
	</g>
</g>
<g id="Annapurna">
	<g>
		<polygon class="st4" points="767.54,99.83 682.61,99.83 100.89,99.83 100.89,358.61 100.89,546.65 100.89,849.78 768.35,849.78 
			768.35,99.83 		"/>
		<g>
			<path class="st5" d="M718.13,531.26c-15.67,14.88-32.94,28.77-51.78,41.66c-18.84,12.91-38.48,24.22-58.92,33.94
				s-41.08,17.36-61.91,22.91c-20.84,5.56-40.97,8.33-60.41,8.33c-12.7,0-26.09-1.28-40.19-3.86s-27.19-5.56-39.28-8.94
				c-12.11-3.38-22.33-6.64-30.66-9.81c-8.34-3.17-12.91-5.16-13.69-5.95c-1.19-1.19-3.77-4.55-7.73-10.11s-7.94-12.31-11.91-20.25
				s-7.55-16.47-10.72-25.59s-4.75-18.25-4.75-27.38c0-16.27,2.77-30.16,8.33-41.67c5.55-11.5,12.98-20.92,22.31-28.27
				s20.23-12.7,32.73-16.08s25.69-5.06,39.59-5.06c24.59,0,47.41,3.88,68.44,11.61c21.03,7.75,42.27,17.97,63.7,30.66v-55.36
				c-7.94-7.94-17.77-16.36-29.47-25.3c-11.72-8.92-24.61-17.16-38.7-24.69s-28.97-13.78-44.64-18.75s-31.25-7.45-46.72-7.45
				c-2.38,0-4.86,0-7.44,0s-5.06,0.2-7.44,0.59c-18.66-13.48-34.53-28.36-47.62-44.64c-13.09-16.27-19.64-34.12-19.64-53.56
				c0-11.5,0.98-21.53,2.97-30.06s4.56-15.77,7.75-21.72c3.17-5.95,6.64-11.02,10.42-15.19c3.77-4.16,7.44-7.83,11.02-11h416.56
				V99.83h-0.81h-84.93H100.89v3.73l38.4,66.7h79.77c-0.41,3.97-0.59,8.05-0.59,12.2c0,4.17,0,8.44,0,12.8
				c0,15.47,3.36,30.66,10.11,45.53s15.88,29.17,27.38,42.86s24.7,26.78,39.58,39.28s30.45,24.11,46.73,34.81
				c-11.91,4.77-23.22,10.92-33.94,18.45c-10.72,7.55-20.23,16.78-28.56,27.69c-8.34,10.91-14.98,23.52-19.94,37.8
				c-4.97,14.28-7.44,30.36-7.44,48.2c0,17.86,3.56,35.13,10.7,51.78c7.14,16.67,16.77,32.45,28.88,47.33
				c12.09,14.88,26.28,28.56,42.56,41.06c16.27,12.5,33.53,23.22,51.78,32.14c18.25,8.94,36.89,15.88,55.94,20.84
				s37.7,7.44,55.97,7.44c19.44,0,37.69-0.59,54.75-1.78s33.12-2.78,48.22-4.77L417.41,849.78h88.7L755.93,624.4
				c4.51-3.7,8.63-7.4,12.42-11.1V468.97c-3.03,5.25-6.37,10.54-10.05,15.85C747.19,500.9,733.8,516.38,718.13,531.26z"/>
			<path class="st5" d="M388.97,725.29c-6.16-6.14-12.59-11.39-19.34-15.77c-6.75-4.36-12.69-6.55-17.84-6.55
				c-5.17,0-11.23,2.19-18.17,6.55c-6.94,4.38-13.48,9.62-19.64,15.77c-6.16,6.16-11.31,12.59-15.47,19.34
				c-4.17,6.75-6.25,12.7-6.25,17.86s2.08,11.22,6.25,18.16c4.16,6.94,9.31,13.48,15.47,19.64s12.7,11.31,19.64,15.47
				c6.94,4.17,13,6.25,18.17,6.25c5.16,0,11.09-2.08,17.84-6.25c6.75-4.16,13.19-9.31,19.34-15.47s11.41-12.7,15.78-19.64
				c4.36-6.94,6.55-13,6.55-18.16s-2.19-11.11-6.55-17.86C400.38,737.88,395.13,731.45,388.97,725.29z"/>
		</g>
		<rect x="100.49" y="99.62" class="st6" width="667.46" height="749.95"/>
	</g>
</g>
<g id="Tai_Heritage_Pro_00000072281344654715710610000001015599468580360109_" class="st0">
	<polygon class="st1" points="767.54,99.83 682.61,99.83 100.89,99.83 100.89,358.61 100.89,546.65 100.89,849.78 768.35,849.78 
		768.35,99.83 	"/>
	<path class="st2" d="M140.77,441.56c13.06-26.56,26.63-49.52,40.74-68.88c14.1-19.36,28.28-34.44,42.54-45.24
		c14.25-10.8,27.69-16.21,40.29-16.21c5.7,0,10.5,1.05,14.41,3.15c3.9,2.1,7.05,4.95,9.45,8.55c2.4,3.6,4.12,7.65,5.18,12.15
		c1.05,4.5,1.58,9.16,1.58,13.96c0,24.01-1.65,47.79-4.95,71.35c-3.31,23.56-6.91,47.12-10.8,70.68c-3.9,23.56-7.5,47.12-10.8,70.68
		c-3.31,23.56-4.95,47.35-4.95,71.35c0,15.01,1.8,29.19,5.4,42.54c3.6,13.36,9.15,25.14,16.66,35.34
		c7.5,10.21,17.11,18.23,28.81,24.08c11.71,5.85,25.81,8.78,42.32,8.78c14.1,0,27.53-2.03,40.29-6.08
		c12.75-4.05,24.98-9.23,36.69-15.53c11.7-6.3,23.11-13.28,34.21-20.93c11.1-7.65,21.98-14.93,32.64-21.83
		c10.65-6.9,21.23-13.05,31.74-18.46c10.5-5.4,21.16-9.15,31.96-11.25c5.1,11.41,11.32,22.51,18.68,33.31
		c7.35,10.8,15.83,20.41,25.43,28.81c9.6,8.41,20.18,15.24,31.74,20.48c11.55,5.25,24.08,7.88,37.59,7.88
		c19.5,0,33.83-5.63,42.99-16.88c9.15-11.25,13.73-26.18,13.73-44.79c0-13.5-3.68-26.03-11.03-37.59
		c-7.36-11.55-16.66-21.68-27.91-30.39c-11.25-8.7-23.56-15.68-36.91-20.93c-13.36-5.25-26.04-8.17-38.04-8.78
		c-0.6-11.4-1.13-22.66-1.58-33.76c-0.45-11.1-0.68-21.9-0.68-32.41c0-51.02,4.73-98.51,14.18-142.48
		c9.45-43.96,24.15-86.81,44.12-128.52c19.96-41.71,45.54-83.43,76.75-125.15c4.63-6.19,9.41-12.44,14.31-18.73h-84.93
		c-23.13,31.3-43.49,64.03-61.06,98.18c-24.16,46.97-42.7,96.72-55.6,149.23c-12.91,52.52-19.36,107.89-19.36,166.11
		c0,22.81,0.9,45.92,2.7,69.33c-10.51,1.8-21.54,5.18-33.09,10.13c-11.56,4.95-23.18,10.58-34.89,16.88
		c-11.7,6.3-23.18,12.91-34.44,19.81c-11.25,6.91-21.83,13.21-31.74,18.91c-9.9,5.7-18.98,10.43-27.23,14.18
		c-8.26,3.76-15.08,5.63-20.48,5.63c-11.11,0-18.61-3.83-22.51-11.48c-3.9-7.65-5.85-18.23-5.85-31.74c0-16.5,1.35-35.26,4.05-56.27
		c2.7-21,5.77-43.06,9.23-66.17c3.45-23.11,6.53-46.59,9.23-70.45c2.7-23.86,4.05-46.89,4.05-69.1c0-14.41-1.58-28.88-4.73-43.44
		c-3.15-14.55-8.26-27.69-15.31-39.39c-7.05-11.7-16.28-21.23-27.69-28.59c-11.41-7.35-25.51-11.03-42.32-11.03
		c-29.42,0-56.72,7.81-81.93,23.41c-25.21,15.61-48.17,36.24-68.88,61.9c-8.35,10.34-16.31,21.26-23.9,32.75v188.04
		c1.75-6.13,3.55-12.22,5.44-18.21C116.23,497.08,127.71,468.12,140.77,441.56z M646.98,645.26c6.9,1.2,13.35,3.23,19.36,6.08
		c6,2.86,11.03,6.68,15.08,11.48c4.05,4.8,6.08,10.66,6.08,17.56c0,3.31-1.05,5.78-3.15,7.43c-2.1,1.65-6.01,2.48-11.7,2.48
		c-4.8,0-9.68-1.65-14.63-4.95c-4.95-3.3-9.53-7.27-13.73-11.93c-4.21-4.65-7.73-9.68-10.58-15.08c-2.86-5.4-4.58-10.35-5.18-14.86
		C633.93,643.46,640.08,644.06,646.98,645.26z"/>
</g>
<g>
	<g>
		<path class="st7" d="M1494.17,99.79H826.18v750.35h667.99V99.79z"/>
		<path class="st8" d="M1267.15,663.72V372.13l61.28-0.02v233.95l165.74,0.14V99.79H826.18v506.42l166.96-0.05
			c34.68,0,42.24-13.99,42.5-25.74c0.52-24.05-12.56-33.66-37.76-50.03c-47.29-28.82-54.35-62.46-54.35-79.94
			c0-59.62,45.42-86.3,90.41-86.3c17.8,0,47.42,6.96,58.05,11.67l-10.19,54.01c-8.1-4.46-19.51-9.02-34.6-9.02
			c-27.54,0-37.36,13.99-37.36,27.1c0,20.43,9.9,27.36,41.17,46.17c34.6,21,52.14,48.65,52.14,82.15
			c0,51.54-37.99,86.24-94.51,86.38l-182.47,0.08v187.45h667.99V663.72H1267.15z M1207.51,663.72h-57.48V372.31h57.48V663.72z"/>
	</g>
	<path class="st7" d="M1450.54,786.8c11.26,0,20.13,8.75,20.13,19.88c0,11.38-8.88,20.13-20.26,20.13s-20.39-8.75-20.39-20.13
		c0-11.13,9.01-19.88,20.39-19.88H1450.54z M1450.29,790.3c-9,0-15.88,7.38-15.88,16.38c0,9.26,6.88,16.51,16.13,16.51
		c9,0.12,15.63-7.25,15.63-16.38c0-9.13-6.63-16.51-15.76-16.51H1450.29z M1446.79,817.69h-3.87V796.8
		c2.12-0.38,4.38-0.63,7.25-0.63c3.5,0,5.25,0.63,6.63,1.63c1.25,0.88,2.13,2.5,2.13,4.38c0,2.63-1.88,4.25-4.13,5v0.25
		c1.88,0.75,2.88,2.38,3.5,5c0.63,3.25,1,4.5,1.5,5.25h-4c-0.63-0.75-1.13-2.63-1.63-5.5c-0.5-2.25-1.88-3.25-4.88-3.25h-2.5V817.69
		z M1446.79,805.93h2.63c2.87,0,5.38-0.88,5.38-3.38c0-2-1.25-3.38-5-3.38c-1.5,0-2.38,0.12-3,0.25V805.93z"/>
</g>
</svg>
