<?xml version="1.0" encoding="utf-8"?>
<!-- Generator: Adobe Illustrator 23.0.6, SVG Export Plug-In . SVG Version: 6.00 Build 0)  -->
<svg version="1.1" id="Layer_1" xmlns="http://www.w3.org/2000/svg" xmlns:xlink="http://www.w3.org/1999/xlink" x="0px" y="0px"
	 viewBox="0 0 256 256" style="enable-background:new 0 0 256 256;" xml:space="preserve">
<style type="text/css">
	.st0{fill:#3F521F;}
	.st1{fill:#B9D332;}
	.st2{fill:#90A726;}
</style>
<g>
	<g>
		<circle class="st0" cx="120" cy="136" r="120"/>
	</g>
	<g>
		<circle class="st1" cx="122.9" cy="132.7" r="110.7"/>
	</g>
	<g>
		<path class="st2" d="M185.6,152c-22.9,9.2-44.6,19.9-65,32.1c-17.9,10.7-35.1,22.6-50.5,35.7c-0.6,0.7-1.2,1.4-1.8,2.1l-1.8,6.1
			c0.2,0.1,0.5,0.3,0.7,0.4c0.2-0.2,0.4-0.4,0.6-0.5c9.3-8.7,20-16.5,30.4-24.4c4-3,12.5-7.4,13.8-8c0.9-0.5,1.8-0.9,2.8-1.3
			c13.6-6,27.5-6.9,41.8-7.9c0.6,0,1.1-0.1,1.7-0.1c8.4-0.5,14.3,0.4,19.4-0.3c4.1-0.4,7.6-1.6,11.1-5.1c0.6-0.6,1-1.1,1.2-2.2
			c0.1-0.2,0.2-1.2,0.1-1.6c2.8-0.7,6-1,8.8-1.6c4.8-1,9.5-2.3,13.8-4c0.1,0,0.1,0,0.2-0.1c0.2-0.1,0.4-0.2,0.6-0.2
			c4.3-1.7,6.5-4.2,8.7-7.4c0.8-1.1,1-2,1.4-3.2c0.1-0.3,0.5-0.6,0.9-0.8c1.3-0.4,3-0.5,4-0.7c0.7-0.1,1.3-0.2,2-0.3
			c1.8-7.5,2.8-15.3,3-23.2C217.1,140.2,201.1,145.8,185.6,152z"/>
	</g>
	<g>
		<path class="st0" d="M161,81.9c-20.6,20.5-39.3,42.1-56,64.9c-14.9,20.3-28.5,41.5-39.7,63.4c-0.4,1.1-0.7,2.2-1.1,3.2l-0.2,1.8
			c-0.1,0.3,0.4,4.9,0.5,6l1.1,9.7c6.1-15.5,14.7-30.4,22.7-45.5c2.9-5.4,10.1-14.6,11.2-16c13.1-16.4,29.4-24.7,46.1-33.7
			c15.3-8.2,25.3-7.7,30.3-20.7c0.4-1,0.5-1.8,0.4-3.2c0-0.3-0.4-1.6-0.6-2c0.5-0.4,1.1-0.8,1.6-1.3c2.5-1.9,5.3-3.5,7.7-5.3
			c3.7-2.7,7.3-5.7,10.5-8.8c0.9-0.9,1.8-1.8,2.7-2.7c3.8-4.1,5.1-8.1,6.2-12.8c0.4-1.7,0.1-2.9,0.2-4.5c0-1.8,3.5-3.5,5.1-4.5
			c5.2-3.4,10.5-6.6,15.6-10c4.8-3.1,9.5-6.5,12.4-10.9c4.5-7.1,5-15.9,13.4-21.3c0,0,0.1-0.1,0.1-0.1c0.4-0.6,0.8-4,0.8-4
			c0.6-3.3,1.3-6.6,1.9-9.9c0.5-3,1.1-5.9,1.6-8.9c0.1-0.3,0.1-0.7,0.2-1c0,0.1,0.3-3.1,0.5-3.9C221.2,24.8,189.3,52.2,161,81.9z"/>
	</g>
</g>
<g>
</g>
<g>
</g>
<g>
</g>
<g>
</g>
<g>
</g>
<g>
</g>
</svg>
