<?xml version="1.0" encoding="utf-8"?>
<!-- Generator: Adobe Illustrator 27.9.0, SVG Export Plug-In . SVG Version: 6.00 Build 0)  -->
<svg version="1.1" id="Layer_1" xmlns="http://www.w3.org/2000/svg" xmlns:xlink="http://www.w3.org/1999/xlink" x="0px" y="0px"
	 viewBox="0 0 342.1 154.1" style="enable-background:new 0 0 342.1 154.1;" xml:space="preserve">
<style type="text/css">
	.st0{fill:#3A3A3A;}
	.st1{fill:none;stroke:#8B1726;stroke-width:0.2997;stroke-miterlimit:2.9965;}
	.st2{fill:#FFFFFF;}
	.st3{opacity:0.6;}
	.st4{fill:#C4D770;}
</style>
<g transform="translate(1, 1)">
	<path vector-effect="non-scaling-stroke" class="st0" d="M312.3,51.7h-64.4c-2.2,0-3.9,1.7-3.9,3.9l0,0v83.1c0,2.1,1.7,3.9,3.9,3.9
		l0,0h50.9v-16.4h-47v-61h56.6v17.6h7.8V55.6C316.2,53.5,314.4,51.7,312.3,51.7L312.3,51.7z"/>
	<rect x="131.9" y="134.5" vector-effect="non-scaling-stroke" class="st1" width="10.2" height="3"/>
	<ellipse vector-effect="non-scaling-stroke" class="st2" cx="197.4" cy="6.2" rx="2.4" ry="2.4"/>
	<polygon vector-effect="non-scaling-stroke" class="st0" points="214.6,135.9 211.5,122.4 182.4,122.4 179.4,135.9 168.9,135.9 
		168.9,142.1 225.2,142.1 225.2,135.9 	"/>
	<g class="st3">
		<path vector-effect="non-scaling-stroke" class="st2" d="M276.8,130.6h6.6c1.7,0,3.1,1.4,3.1,3.1l0,0c0,1.7-1.4,3.1-3.1,3.1h-6.6
			c-1.7,0-3.1-1.4-3.1-3.1l0,0C273.6,132,275,130.6,276.8,130.6z"/>
	</g>
	<path vector-effect="non-scaling-stroke" class="st0" d="M338.4,86.4h-33.7c-1.3,0-2.3,1-2.3,2.3v0v61.7c0,1.3,1,2.3,2.3,2.3l0,0
		h33.7c1.3,0,2.3-1,2.3-2.3c0,0,0,0,0,0V88.7C340.8,87.5,339.7,86.4,338.4,86.4L338.4,86.4z M336.7,141.3h-30.3V96.7h30.3V141.3z"/>
	<g class="st3">
		<path vector-effect="non-scaling-stroke" class="st2" d="M319.9,144.4h3.3c1.7,0,3.1,1.4,3.1,3.1l0,0c0,1.7-1.4,3.1-3.1,3.1h-3.3
			c-1.7,0-3.1-1.4-3.1-3.1l0,0C316.8,145.8,318.2,144.4,319.9,144.4z"/>
	</g>
	<rect x="321.6" y="90.6" vector-effect="non-scaling-stroke" class="st2" width="0.6" height="4.5"/>
	<g class="st3">
		<ellipse vector-effect="non-scaling-stroke" class="st2" cx="280.7" cy="58.2" rx="2.4" ry="2.4"/>
	</g>
	<path vector-effect="non-scaling-stroke" class="st0" d="M138,35.2H15.2c-1.7,0-3,1.3-3,3v90.3h17.5v-2.2h15.6v2.2h62.3v-2.2h15.6
		v2.2H141V38.1C141,36.5,139.7,35.2,138,35.2z M131.7,118.4H21.5V47h110.3V118.4z"/>
	<g class="st3">
		<ellipse vector-effect="non-scaling-stroke" class="st2" cx="76.6" cy="40.5" rx="2.4" ry="2.4"/>
	</g>
	<path vector-effect="non-scaling-stroke" class="st0" d="M90.2,131.7v3.1H63.9v-3.1H-0.7v4.5c0,3.1,2.5,5.6,5.6,5.6c0,0,0,0,0,0
		h142.7c3.5,0,6.3-2.8,6.3-6.3c0,0,0,0,0,0v-3.9H90.2z M14.7,138.4c-1.3,0-2.4-1.1-2.4-2.4s1.1-2.4,2.4-2.4s2.4,1.1,2.4,2.4
		S16.1,138.4,14.7,138.4z M24.3,138.4c-1.3,0-2.4-1.1-2.4-2.4s1.1-2.4,2.4-2.4c1.3,0,2.4,1.1,2.4,2.4S25.6,138.4,24.3,138.4z"/>
	<path vector-effect="non-scaling-stroke" class="st0" d="M278.6-0.7H116.5c-1.7,0-3,1.3-3,3v27.2h11.1V12.7h146.2v33.3h10.8V2.3
		C281.6,0.6,280.2-0.7,278.6-0.7z"/>
	<rect x="146.7" y="103.6" vector-effect="non-scaling-stroke" class="st0" width="91.5" height="13.7"/>
	<g>
		<rect x="21.5" y="47" vector-effect="non-scaling-stroke" class="st4" width="110.3" height="71.4"/>
	</g>
	<g>
		<path vector-effect="non-scaling-stroke" class="st4" d="M238.3,103.6v-48c0-5.3,4.3-9.6,9.6-9.6h22.9V12.7H124.6v16.7H138
			c4.8,0,8.7,3.9,8.7,8.7v65.4H238.3z"/>
	</g>
	<g>
		<path vector-effect="non-scaling-stroke" class="st4" d="M298.8,88.4c0-3.1,2.5-5.6,5.6-5.6h4V65.2h-56.6v61h47V88.4z"/>
	</g>
	<g>
		<rect x="306.4" y="96.7" vector-effect="non-scaling-stroke" class="st4" width="30.3" height="44.5"/>
	</g>
</g>
</svg>
