<svg version="1.2" xmlns="http://www.w3.org/2000/svg" xmlns:xlink="http://www.w3.org/1999/xlink" overflow="visible" preserveAspectRatio="none" viewBox="0 0 1141.5 515.5" id="Layer_1" width="342.05068226120864" height="154.05794556628624"><g transform="translate(1, 1)"><defs><style>.cls-1{fill:#3a3a3a;}.cls-2{fill:none;stroke:#8b1726;stroke-miterlimit:10;}.cls-3{fill:#fff;}.cls-4{opacity:0.6;}.cls-5{opacity:0.3;}</style></defs><path transform="translate(-22 -37)" d="M1066.5,212.5h-215a13,13,0,0,0-13,13v278a13,13,0,0,0,13,13h170v-55h-157v-204h189v59h26v-91A13,13,0,0,0,1066.5,212.5Z" class="cls-1" vector-effect="non-scaling-stroke"/><rect height="10" width="34" y="452.5" x="442.5" class="cls-2" vector-effect="non-scaling-stroke"/><circle r="8" cy="23" cx="661" class="cls-3" vector-effect="non-scaling-stroke"/><polygon points="718.55 457 708 412 611 412 601.16 457 566 457 566 478 754 478 754 457 718.55 457" class="cls-1" vector-effect="non-scaling-stroke"/><g class="cls-4"><rect rx="10.5" height="21" width="43" y="439.5" x="915.5" class="cls-3" vector-effect="non-scaling-stroke"/></g><path transform="translate(-22 -37)" d="M1153.7,328.5H1041.3a7.8,7.8,0,0,0-7.8,7.8V542.7a7.8,7.8,0,0,0,7.8,7.8h112.4a7.8,7.8,0,0,0,7.8-7.8V336.3A7.8,7.8,0,0,0,1153.7,328.5ZM1148,512H1047V363h101Z" class="cls-1" vector-effect="non-scaling-stroke"/><g class="cls-4"><rect rx="10.5" height="21" width="32" y="485.5" x="1059.5" class="cls-3" vector-effect="non-scaling-stroke"/></g><rect height="15" width="2" y="305.5" x="1075.5" class="cls-3" vector-effect="non-scaling-stroke"/><g class="cls-4"><circle r="8" cy="197" cx="939" class="cls-3" vector-effect="non-scaling-stroke"/></g><path transform="translate(-22 -37)" d="M485,157H75a10,10,0,0,0-10,10V469h58.5v-7.5h52V469h208v-7.5h52V469H495V167A10,10,0,0,0,485,157ZM464,435.5H96v-239H464Z" class="cls-1" vector-effect="non-scaling-stroke"/><g class="cls-4"><circle r="8" cy="138" cx="258" class="cls-3" vector-effect="non-scaling-stroke"/></g><path transform="translate(-22 -37)" d="M325.5,480v10.5h-88V480H22v15.21A18.79,18.79,0,0,0,40.79,514H516.91A21.09,21.09,0,0,0,538,492.91V480Zm-252,22.5a8,8,0,1,1,8-8A8,8,0,0,1,73.5,502.5Zm32,0a8,8,0,1,1,8-8A8,8,0,0,1,105.5,502.5Z" class="cls-1" vector-effect="non-scaling-stroke"/><path transform="translate(-22 -37)" d="M954,37H413a10,10,0,0,0-10,10v91h37V82H928V193.5h36V47A10,10,0,0,0,954,37Z" class="cls-1" vector-effect="non-scaling-stroke"/><rect height="46" width="305.5" y="349" x="492" class="cls-1" vector-effect="non-scaling-stroke"/><g class="cls-5"><rect height="239" width="367.98" y="159.5" x="74.01" class="cls-3" vector-effect="non-scaling-stroke"/></g><g class="cls-5"><path transform="translate(-22 -37)" d="M819.5,386V225.5a32,32,0,0,1,32-32H928V82H440v56h45a29,29,0,0,1,29,29V386Z" class="cls-3" vector-effect="non-scaling-stroke"/></g><g class="cls-5"><path transform="translate(-22 -37)" d="M1021.5,335.3a18.82,18.82,0,0,1,18.8-18.8h13.2v-59h-189v204h157Z" class="cls-3" vector-effect="non-scaling-stroke"/></g><g class="cls-5"><rect height="149" width="101" y="326" x="1025" class="cls-3" vector-effect="non-scaling-stroke"/></g></g></svg>