<?xml version="1.0" encoding="UTF-8"?>
<svg version="1.1" xmlns="http://www.w3.org/2000/svg" width="622" height="622">
<path d="M0 0 C205.26 0 410.52 0 622 0 C622 205.26 622 410.52 622 622 C416.74 622 211.48 622 0 622 C0 416.74 0 211.48 0 0 Z " fill="#BAD333" transform="translate(0,0)"/>
<path d="M0 0 C205.26 0 410.52 0 622 0 C622 205.26 622 410.52 622 622 C416.74 622 211.48 622 0 622 C0 416.74 0 211.48 0 0 Z M237 65 C236.24074219 65.19819336 235.48148438 65.39638672 234.69921875 65.60058594 C200.49185911 74.77378324 168.39985332 92.87252187 141 115 C140.40413086 115.47872559 139.80826172 115.95745117 139.19433594 116.45068359 C124.35303133 128.4784113 110.49859048 142.00922269 99.171875 157.41796875 C98.03468607 158.95317381 96.86153851 160.4615384 95.6875 161.96875 C61.76244156 205.78861715 43.77484988 261.00269444 43.8125 316.1875 C43.81277191 316.86597992 43.81304382 317.54445984 43.81332397 318.24349976 C43.8329963 328.95736219 44.32405594 339.41588478 46 350 C46.1124707 350.73959961 46.22494141 351.47919922 46.34082031 352.24121094 C47.04196277 356.81698635 47.81225285 361.3762842 48.63525391 365.93164062 C48.9627463 367.78874609 49.25513616 369.65196077 49.54296875 371.515625 C52.8586552 391.009191 60.25819419 410.31389025 69 428 C69.41507813 428.84256348 69.83015625 429.68512695 70.2578125 430.55322266 C86.16371446 462.52199272 108.60533704 491.95448973 136 515 C136.80953125 515.68707031 137.6190625 516.37414062 138.453125 517.08203125 C163.26953772 537.79865649 203.67511925 567 237 567 C237 567.66 237 568.32 237 569 C237.99257812 569.18175781 238.98515625 569.36351562 240.0078125 569.55078125 C241.38030032 569.80418978 242.75268873 570.0581371 244.125 570.3125 C244.84768066 570.44640137 245.57036133 570.58030273 246.31494141 570.71826172 C251.02308574 571.60097441 255.69965048 572.57974014 260.375 573.625 C269.30991858 575.559886 277.87240756 576.17478369 287 576 C287 576.66 287 577.32 287 578 C308.88600721 578.35294173 330.28753353 578.17103616 352 575 C353.07040527 574.8448291 354.14081055 574.6896582 355.24365234 574.52978516 C369.70225369 572.41549002 369.70225369 572.41549002 383.57421875 567.984375 C386.32107854 566.86970726 389.08818718 566.06716141 391.9375 565.25 C428.92378979 554.00091541 462.27316789 534.03226139 490.72265625 508.0546875 C492.6737616 506.29434202 494.66013544 504.60815677 496.6875 502.9375 C499.80844668 500.28106631 502.4365012 497.34706812 505.08203125 494.22265625 C506.3973311 492.69840856 507.75159637 491.20718263 509.13671875 489.74609375 C538.20760511 459.04147163 559.4735398 418.25956505 568.54443359 377.01171875 C569.30357899 373.65943684 570.15823559 370.33241712 571 367 C574.97509537 350.98919922 575.18872345 334.58116041 575.1875 318.1875 C575.18840637 317.40112152 575.18931274 316.61474304 575.19024658 315.80453491 C575.18853146 302.63733733 575.05719896 289.3746844 572.75 276.375 C572.62141602 275.63612549 572.49283203 274.89725098 572.36035156 274.13598633 C564.97727755 233.2264244 548.93761676 195.31218955 524 162 C523.55333984 161.39639648 523.10667969 160.79279297 522.64648438 160.17089844 C502.33714886 132.86612513 476.61692144 111.35616695 447.625 93.8125 C446.98836426 93.42570068 446.35172852 93.03890137 445.69580078 92.64038086 C442.56440103 90.64061334 442.56440103 90.64061334 439 90 C439 89.34 439 88.68 439 88 C419.67615617 78.31899415 400.08082843 69.27790928 378.828125 64.83203125 C375.03021168 64.00656642 371.34918443 62.98338822 367.625 61.875 C361.75892424 60.18006163 356.05382788 58.81103914 350 58 C349.34322266 57.90976562 348.68644531 57.81953125 348.00976562 57.7265625 C310.88551628 52.87714599 273.11600193 55.48979052 237 65 Z " fill="#FEFEFE" transform="translate(0,0)"/>
<path d="M0 0 C97.27935223 0 97.27935223 0 124 15 C125.36125 15.73863281 125.36125 15.73863281 126.75 16.4921875 C148.46566886 28.81165349 162.82171551 46.54443153 173 69 C173.42152344 69.928125 173.84304688 70.85625 174.27734375 71.8125 C185.81838393 98.98838329 183.58886037 132.6308596 173.11303711 159.57617188 C170.60471655 165.78453611 167.91569573 171.54089136 164 177 C163.35675781 177.93457031 162.71351563 178.86914062 162.05078125 179.83203125 C144.56244854 204.29057916 118.38772948 220.37843924 89 226.3125 C84.61596856 227.02216923 80.4342809 227.16733135 76 227 C76 227.66 76 228.32 76 229 C50.92 229 25.84 229 0 229 C0 153.43 0 77.86 0 0 Z " fill="#BAD332" transform="translate(326,206)"/>
<path d="M0 0 C126.49290541 0 126.49290541 0 154.5 11.375 C155.39549561 11.73803223 156.29099121 12.10106445 157.21362305 12.47509766 C163.49748185 15.1290991 169.22505811 18.38373423 175 22 C176.44826172 22.85658203 176.44826172 22.85658203 177.92578125 23.73046875 C185.61360171 28.42368812 192.33011776 33.98484288 199 40 C199.93972656 40.84304687 200.87945312 41.68609375 201.84765625 42.5546875 C226.56000175 65.95141173 239.95770647 99.24565187 241.23828125 132.9609375 C241.67177881 154.0461027 239.62736129 175.56119801 231 195 C230.57509277 195.98154053 230.57509277 195.98154053 230.14160156 196.98291016 C214.45309515 232.58108466 185.0971093 256.51405008 149.5 270.625 C147.33830215 271.43013537 145.17160898 272.22199292 143 273 C141.96230469 273.37253906 140.92460937 273.74507813 139.85546875 274.12890625 C129.5468529 277.57358553 118.88437632 279.20187406 108 279 C108 279.66 108 280.32 108 281 C72.36 281 36.72 281 0 281 C0 188.27 0 95.54 0 0 Z M29 26 C29 101.57 29 177.14 29 255 C54.08 255 79.16 255 105 255 C105 254.34 105 253.68 105 253 C106.010625 253.061875 107.02125 253.12375 108.0625 253.1875 C134.84629417 253.04628492 161.60215951 237.3584818 180.25 219.1875 C193.22883348 206.05887829 201.65449907 189.56378877 207 172 C207.32097656 170.95714844 207.64195312 169.91429687 207.97265625 168.83984375 C210.2158223 159.9193462 210.27833172 151.09684088 210.3125 141.9375 C210.32083862 140.05611328 210.32083862 140.05611328 210.3293457 138.13671875 C210.16857907 117.11888556 205.09829571 99.24111211 195 81 C194.45601562 80.01257813 193.91203125 79.02515625 193.3515625 78.0078125 C178.1941203 52.49894636 150.32527478 36.04732306 122.3125 28.37890625 C93.39929791 21.3868247 56.46449142 26 29 26 Z " fill="#FDFEFA" transform="translate(297,180)"/>
<path d="M0 0 C1.23685547 -0.00773438 2.47371094 -0.01546875 3.74804688 -0.0234375 C13.10275104 -0.00364965 21.74254806 0.64950229 30.4375 4.25 C32.4758702 4.84474993 34.51782772 5.42729081 36.5625 6 C49.75439656 10.05676729 68.62258775 20.19872118 76.4375 32.25 C75.99164594 35.82175658 75.36191663 36.31717409 72.48828125 38.87109375 C71.24993617 39.82009346 70.00347398 40.75857484 68.75 41.6875 C67.51627949 42.62284436 66.28320117 43.55903639 65.05078125 44.49609375 C64.14513428 45.17647705 64.14513428 45.17647705 63.22119141 45.87060547 C61.46563645 47.22824104 59.78560054 48.64828094 58.10546875 50.09765625 C55.4375 52.25 55.4375 52.25 53.4375 52.25 C52.40885926 50.95445248 51.44030048 49.61102173 50.5 48.25 C41.85810857 36.90529479 26.14163344 28.24027988 12.16015625 25.640625 C-8.68596915 23.45320366 -28.75761391 25.87410416 -45.5625 39.25 C-54.11413193 46.42998404 -60.56523851 56.61730366 -61.86376953 67.85791016 C-61.99935339 70.62111924 -62.02971432 73.35869308 -62 76.125 C-61.99387695 77.09373047 -61.98775391 78.06246094 -61.98144531 79.06054688 C-61.76778593 88.82313694 -59.56836557 96.42417516 -53.5625 104.25 C-52.881875 105.19875 -52.20125 106.1475 -51.5 107.125 C-45.10868482 114.57499928 -36.67312613 119.07312484 -27.5625 122.25 C-25.95633074 122.83662724 -24.35090223 123.4252853 -22.74609375 124.015625 C-16.09898209 126.43660351 -9.41164298 128.73776381 -2.7199707 131.03173828 C-0.63126853 131.74785083 1.45686499 132.46560212 3.54492188 133.18359375 C4.91405696 133.65366198 6.28319753 134.12371422 7.65234375 134.59375 C8.65503296 134.93893425 8.65503296 134.93893425 9.67797852 135.29109192 C13.71656422 136.67688661 17.77234713 137.99514179 21.83984375 139.29296875 C27.20154739 141.07612389 32.10327557 143.36903818 37.0625 146.0625 C37.88008789 146.50045898 38.69767578 146.93841797 39.54003906 147.38964844 C45.47904558 150.61814063 51.11007754 154.07388691 56.4375 158.25 C57.04207031 158.69214844 57.64664063 159.13429688 58.26953125 159.58984375 C70.83356742 169.37447688 77.78909222 183.91182302 80.4375 199.25 C80.85055925 204.0509837 80.91556363 208.80814834 80.875 213.625 C80.86670166 214.89996338 80.85840332 216.17492676 80.84985352 217.48852539 C80.47205017 238.52585236 72.92248065 255.19318818 58.390625 270.390625 C37.8075586 290.04513201 9.68683111 295.01380426 -17.71875 294.47265625 C-32.61096393 294.00015138 -46.71680873 290.89859098 -60.18359375 284.390625 C-62.71255669 283.13503868 -62.71255669 283.13503868 -66.0625 281.9375 C-78.45394919 275.96305128 -90.28303853 265.18906502 -98.5625 254.25 C-98.5625 253.59 -98.5625 252.93 -98.5625 252.25 C-96.88183594 250.78540039 -96.88183594 250.78540039 -94.546875 249.09765625 C-93.28810547 248.18016602 -93.28810547 248.18016602 -92.00390625 247.24414062 C-91.11574219 246.60669922 -90.22757813 245.96925781 -89.3125 245.3125 C-88.43980469 244.67892578 -87.56710938 244.04535156 -86.66796875 243.39257812 C-85.03441663 242.20669411 -83.39887052 241.02354871 -81.76074219 239.84399414 C-79.53845044 238.27339838 -79.53845044 238.27339838 -77.46582031 236.48217773 C-76.83772461 236.07555908 -76.20962891 235.66894043 -75.5625 235.25 C-72.14926635 236.38774455 -71.64249479 237.15303122 -69.625 240 C-65.55662645 245.68487397 -61.56895813 250.38463515 -56.0625 254.6875 C-55.44955078 255.16759521 -54.83660156 255.64769043 -54.20507812 256.14233398 C-37.21996955 269.0980805 -18.3655157 271.05675285 2.4375 269.25 C8.47696514 268.1133378 13.91480328 265.89210832 19.4375 263.25 C20.79875 262.60611328 20.79875 262.60611328 22.1875 261.94921875 C24.36513484 260.81993852 26.39305908 259.60318528 28.4375 258.25 C29.1078125 257.82332031 29.778125 257.39664062 30.46875 256.95703125 C40.94997428 249.76126765 48.52124933 238.12201776 51.15234375 225.65625 C52.83539927 211.45402806 51.34419511 198.20186028 42.3984375 186.51953125 C28.88315633 170.87734329 9.25980361 164.35126517 -9.82662964 158.14437866 C-57.38753899 142.6448623 -57.38753899 142.6448623 -73.5625 126.25 C-74.16835937 125.64285156 -74.77421875 125.03570312 -75.3984375 124.41015625 C-89.89921004 108.72016692 -92.3931409 89.49488763 -91.73291016 69.10253906 C-90.53732428 49.08932217 -79.98835371 34.12354658 -65.9765625 20.7890625 C-54.67317511 10.84343936 -41.20562745 5.21979091 -26.5625 2.25 C-25.70084229 2.07339844 -24.83918457 1.89679688 -23.95141602 1.71484375 C-15.93391426 0.20868304 -8.1434998 -0.05108311 0 0 Z " fill="#FDFEFB" transform="translate(207.5625,172.75)"/>
</svg>
