<?xml version="1.0" encoding="utf-8"?>
<!-- Generator: Adobe Illustrator 27.9.0, SVG Export Plug-In . SVG Version: 6.00 Build 0)  -->
<svg version="1.1" id="Layer_1" xmlns="http://www.w3.org/2000/svg" xmlns:xlink="http://www.w3.org/1999/xlink" x="0px" y="0px"
	 viewBox="0 0 1024 1024" style="enable-background:new 0 0 1024 1024;" xml:space="preserve">
<style type="text/css">
	.st0{fill:#9BA26D;}
	.st1{fill:#BECC63;}
	.st2{fill:#FFFFFF;}
</style>
<path class="st0" d="M444.6,21.6c-0.4-1.2-0.7-2.1-1.4-3c-0.2-0.4-0.5-0.5-0.7-0.7c-0.5-0.5-0.9-1.1-1.4-1.4
	c-0.4-0.2-0.7-0.4-1.1-0.5c-0.5-0.2-1.1-0.5-1.6-0.7c-0.4,0-0.7,0-1.1,0c-0.5,0-1.1-0.2-1.6,0c-0.5,0-1.2,0.2-1.8,0.4
	c-0.4,0.2-0.9,0.2-1.2,0.4c-0.5,0.2-1.1,0.5-1.6,0.9c-0.4,0.2-0.7,0.4-1.1,0.7c-0.5,0.5-0.9,1.1-1.2,1.8c-0.2,0.4-0.5,0.5-0.5,0.9
	c-0.4,1.1-0.7,2.1-0.7,3.5V150l74.7,98.6L444.6,21.6z"/>
<path class="st1" d="M600,23.5c0-1.4-0.4-2.5-0.7-3.5c-0.2-0.4-0.4-0.5-0.5-0.9c-0.4-0.7-0.7-1.2-1.2-1.8c-0.4-0.4-0.7-0.5-1.1-0.7
	c-0.5-0.4-1.1-0.7-1.6-0.9c-0.4-0.2-0.9-0.2-1.2-0.4c-0.5-0.2-1.2-0.4-1.8-0.4s-1.1,0-1.6,0c-0.4,0-0.7,0-1.2,0.2
	c-0.5,0.2-1.1,0.4-1.6,0.7c-0.4,0.2-0.7,0.4-1.1,0.5c-0.5,0.4-1.1,0.9-1.4,1.4c-0.2,0.2-0.5,0.4-0.7,0.7c-0.5,0.9-1.1,1.8-1.4,3
	l-57.6,227.2L600,150V23.5z"/>
<path class="st0" d="M427.6,231.9l75,55.2l-75-106.2l-4.1-5.7l-14-19.3L333.1,50.3l0,0c-0.9-1.1-1.8-1.8-2.8-2.5
	c-0.4-0.2-0.5-0.4-0.9-0.4c-0.9-0.4-2-0.7-3-0.7c-0.2,0-0.2,0-0.4,0c-1.1,0-2,0.2-2.8,0.5c-0.2,0.2-0.5,0.2-0.7,0.4
	c-0.7,0.4-1.2,0.7-1.8,1.1c-0.2,0.2-0.5,0.5-0.7,0.7c-0.5,0.5-0.9,1.1-1.2,1.8c-0.2,0.4-0.4,0.5-0.5,0.9c-0.4,1.1-0.7,2.1-0.7,3.4
	v92.9l92,69.9L427.6,231.9z"/>
<path class="st0" d="M433.1,258.5l-5.3-3.9l0,0L409.7,241l-92-69.9l-18.1-13.7l-83.9-63.7c-0.7-0.5-1.6-1.1-2.5-1.2
	c-0.4-0.2-0.5-0.2-0.9-0.2c-0.5-0.2-1.1-0.2-1.6-0.4c-0.2,0-0.5,0-0.7,0c-0.7,0-1.6,0.2-2.3,0.5c-0.2,0-0.5,0.2-0.7,0.2
	c-0.9,0.4-1.8,0.9-2.5,1.6c-0.2,0.2-0.2,0.2-0.4,0.4c-0.5,0.5-1.1,1.2-1.4,2.1c-0.2,0.2-0.2,0.5-0.4,0.7c-0.4,0.9-0.7,2-0.7,3.2
	v69.9l97.7,37.2l18.3,6.7l92,35.1l18.1,6.9l0,0L433.1,258.5z"/>
<path class="st1" d="M825.2,97.3c-0.2-0.2-0.2-0.5-0.4-0.7c-0.4-0.7-0.9-1.4-1.4-2.1c-0.2-0.2-0.2-0.2-0.4-0.4
	c-0.7-0.7-1.6-1.2-2.5-1.6c-0.2-0.2-0.5-0.2-0.7-0.2c-0.7-0.2-1.6-0.4-2.3-0.5c-0.2,0-0.5,0-0.7,0c-0.5,0-1.1,0.2-1.6,0.4
	c-0.4,0-0.5,0-0.9,0.2c-0.9,0.4-1.6,0.7-2.5,1.2L728,157.2l-18.1,13.7l-91.9,69.9L600,254.4l0,0l-5.3,3.9l5.3-2l0,0l18.1-6.9
	l92-35.1l18.1-6.9l97.7-37.2v-69.7C825.9,99.4,825.6,98.4,825.2,97.3z"/>
<path class="st0" d="M512.7,1001.5c0.4,1.1,0.7,2,1.1,3V347.9v-0.2v-27.7v-11.2l-9-3.5l-0.4-0.2l-0.7-0.2l-8-3l-11.5-4.4l-56.6-21.6
	l-18.1-6.9l-91.9-35.1l-18.1-6.9l-97.7-37.2l-18.1-6.9l-65.3-24.8c-2-0.7-4.1-1.2-6-1.4c-0.5,0-1.1-0.2-1.8-0.2
	c-1.4-0.2-2.8,0-4.3,0c-0.7,0-1.4,0.2-2.1,0.2c-1.4,0.2-3,0.7-4.4,1.1c-0.5,0.2-0.9,0.2-1.4,0.4c-1.8,0.7-3.5,1.6-5.1,2.7
	c-0.4,0.2-0.7,0.5-1.1,0.9c-1.2,0.9-2.3,2-3.4,3c-0.5,0.5-0.9,1.1-1.2,1.6c-0.9,1.1-1.6,2.1-2.3,3.2c-0.4,0.5-0.7,1.2-1.1,2
	c-0.5,1.2-1.1,2.5-1.6,3.9c-0.2,0.7-0.4,1.2-0.5,2c-0.5,2-0.7,4.1-0.7,6.4v644.2c0,11.4,7.1,21.6,17.9,25.5l395,144.7"/>
<circle class="st2" cx="272.4" cy="486.8" r="55.9"/>
<path class="st1" d="M945.3,177.1c0.4-0.5,0-1.2-0.2-1.8c-0.4-1.4-0.9-2.7-1.6-3.9c-0.4-0.7-0.7-1.2-1.1-2c-0.7-1.1-1.4-2.1-2.3-3.2
	c-0.4-0.5-0.9-1.1-1.2-1.6c-1.1-1.1-2.1-2.1-3.4-3c-0.4-0.4-0.7-0.5-1.1-0.9c-1.6-1.1-3.4-2-5.1-2.7c-0.4-0.2-0.9-0.2-1.4-0.4
	c-1.4-0.5-2.8-0.9-4.4-1.1c-0.7-0.2-1.4-0.2-2.1-0.2c-1.4-0.2-2.8-0.2-4.3,0c-0.5,0-1.1,0-1.8,0.2c-2,0.4-4.1,0.7-6,1.4L844,183
	l-18.1,6.9l-97.7,37.2l-18.1,6.9l-92,35.1l-18.1,6.9l-56.6,21.6l-11.5,4.4l-8,3l-10.1,3.7v11.2v0.2v673.2v11.4l16.3-5.9l28.2-10.3
	l71.7-26.2l298.1-109.1c10.6-3.9,17.9-14.2,17.9-25.5V183.5C946,181.4,945.6,179.2,945.3,177.1z M904.9,686.8l0.5-6.6
	c2.8,1.4,5.5,2.8,8.2,4.4C913.4,684.7,910.4,685.4,904.9,686.8z"/>
<g>
	<path class="st2" d="M739,654.5c31,0,56-25,55.9-55.9c0-30.9-25-55.9-55.9-55.9s-55.9,25-55.9,55.9S708.2,654.5,739,654.5z"/>
	<path class="st2" d="M675.4,713.8c2.3-124.5-97.9-246.7-97.9-246.7c53.2,243-22.5,423.3-63.7,537.4c-0.4-1.1-0.7-2-1.1-3
		c-41.1-115.1-122-445.3-78-643.4c0,0-91.9,137.8-88.5,262.1c0,0-113.3-77.7-227.7-39.7c0,0,221.7,35.3,375.8,417.5l0,0l0,0
		l19.5,7.1l0,0l0,0l0,0l0,0l16.3-5.9c136.7-262.3,383.3-314.5,383.3-314.5C827.9,632.4,675.4,713.8,675.4,713.8z"/>
</g>
<path class="st1" d="M709.4,52.1c-0.2-0.4-0.4-0.5-0.5-0.9c-0.4-0.7-0.7-1.2-1.2-1.8c-0.2-0.2-0.5-0.5-0.7-0.7
	c-0.5-0.5-1.2-0.9-1.8-1.1c-0.2-0.2-0.5-0.4-0.7-0.4c-0.9-0.4-2-0.5-2.8-0.5c-0.2,0-0.2,0-0.4,0c-1.1,0-2,0.4-3,0.7
	c-0.4,0.2-0.5,0.2-0.9,0.4c-1.1,0.5-2,1.2-2.8,2.5l-76.4,105.5l-14,19.3l-4.1,5.7l-75,106.2l75-55.2v-0.2l18.1-13.7l92-69.9V55.4
	C710.1,54.2,709.8,53.1,709.4,52.1z"/>
</svg>
