<?xml version="1.0" encoding="UTF-8"?><svg id="uuid-37dab51d-342e-4544-a831-c1fdcd16a7b5" xmlns="http://www.w3.org/2000/svg" viewBox="0 0 1024 1024"><defs><style>.uuid-1610ddc1-c9c2-46f2-a3cd-009dab7b415d{fill:#becc63;}.uuid-1610ddc1-c9c2-46f2-a3cd-009dab7b415d,.uuid-a4bb9bac-c19f-44a7-9091-95d6c2262ef3{stroke-width:0px;}.uuid-a4bb9bac-c19f-44a7-9091-95d6c2262ef3{fill:#9ba26d;}</style></defs><path class="uuid-a4bb9bac-c19f-44a7-9091-95d6c2262ef3" d="m442.84,23.01c-.36-1.24-.71-2.13-1.42-3.02-.18-.36-.53-.53-.71-.71-.53-.53-.89-1.07-1.42-1.42-.36-.18-.71-.36-1.07-.53-.53-.18-1.07-.53-1.6-.71h-1.07c-.53,0-1.07-.18-1.6,0-.53,0-1.24.18-1.78.36-.36.18-.89.18-1.24.36-.53.18-1.07.53-1.6.89-.36.18-.71.36-1.07.71-.53.53-.89,1.07-1.24,1.78-.18.36-.53.53-.53.89-.36,1.07-.71,2.13-.71,3.55v126.42l74.75,98.72-57.71-227.27Z"/><path class="uuid-1610ddc1-c9c2-46f2-a3cd-009dab7b415d" d="m598.38,24.97c0-1.42-.36-2.49-.71-3.55-.18-.36-.36-.53-.53-.89-.36-.71-.71-1.24-1.24-1.78-.36-.36-.71-.53-1.07-.71-.53-.36-1.07-.71-1.6-.89-.36-.18-.89-.18-1.24-.36-.53-.18-1.24-.36-1.78-.36h-1.6c-.36,0-.71,0-1.24.18-.53.18-1.07.36-1.6.71-.36.18-.71.36-1.07.53-.53.36-1.07.89-1.42,1.42-.18.18-.53.36-.71.71-.53.89-1.07,1.78-1.42,3.02l-57.71,227.45,74.93-98.9V24.97Z"/><path class="uuid-a4bb9bac-c19f-44a7-9091-95d6c2262ef3" d="m425.8,233.59l75.11,55.22-75.11-106.36-4.08-5.68-14.03-19.35-76.53-105.65h0c-.89-1.07-1.78-1.78-2.84-2.49-.36-.18-.53-.36-.89-.36-.89-.36-1.95-.71-3.02-.71h-.36c-1.07,0-1.95.18-2.84.53-.18.18-.53.18-.71.36-.71.36-1.24.71-1.78,1.07-.18.18-.53.53-.71.71-.53.53-.89,1.07-1.24,1.78-.18.36-.36.53-.53.89-.36,1.07-.71,2.13-.71,3.37v93.04l92.15,69.96,18.11,13.67Z"/><path class="uuid-a4bb9bac-c19f-44a7-9091-95d6c2262ef3" d="m431.29,260.22l-5.32-3.9h0s-18.11-13.67-18.11-13.67l-92.15-69.96-18.11-13.67-83.98-63.74c-.71-.53-1.6-1.07-2.49-1.24-.36-.18-.53-.18-.89-.18-.53-.18-1.07-.18-1.6-.36h-.71c-.71,0-1.6.18-2.31.53-.18,0-.53.18-.71.18-.89.36-1.78.89-2.49,1.6l-.36.36c-.53.53-1.07,1.24-1.42,2.13-.18.18-.18.53-.36.71-.36.89-.71,1.95-.71,3.2v69.96l97.83,37.29,18.29,6.75,92.15,35.16,18.11,6.92h0s5.32,1.95,5.32,1.95Z"/><path class="uuid-1610ddc1-c9c2-46f2-a3cd-009dab7b415d" d="m823.88,98.83c-.18-.18-.18-.53-.36-.71-.36-.71-.89-1.42-1.42-2.13q-.18-.18-.36-.36c-.71-.71-1.6-1.24-2.49-1.6-.18-.18-.53-.18-.71-.18-.71-.18-1.6-.36-2.31-.53h-.71c-.53,0-1.07.18-1.6.36-.36,0-.53,0-.89.18-.89.36-1.6.71-2.49,1.24l-83.98,63.74-18.11,13.67-91.97,69.96-18.11,13.67h0s-5.33,3.9-5.33,3.9l5.33-1.95h0s18.11-6.92,18.11-6.92l92.15-35.16,18.11-6.92,97.83-37.29v-69.78c0-1.07-.36-2.13-.71-3.2Z"/><path class="uuid-1610ddc1-c9c2-46f2-a3cd-009dab7b415d" d="m707.93,53.55c-.18-.36-.36-.53-.53-.89-.36-.71-.71-1.24-1.24-1.78-.18-.18-.53-.53-.71-.71-.53-.53-1.24-.89-1.78-1.07-.18-.18-.53-.36-.71-.36-.89-.36-1.95-.53-2.84-.53h-.36c-1.07,0-1.95.36-3.02.71-.36.18-.53.18-.89.36-1.07.53-1.95,1.24-2.84,2.49l-76.53,105.65-14.03,19.35-4.08,5.68-75.11,106.36,75.11-55.22v-.18l18.11-13.67,92.15-69.96V56.93c0-1.24-.36-2.31-.71-3.37Z"/><path class="uuid-1610ddc1-c9c2-46f2-a3cd-009dab7b415d" d="m944.08,178.73c.36-.53,0-1.24-.18-1.78-.36-1.42-.89-2.66-1.6-3.91-.36-.71-.71-1.24-1.07-1.95-.71-1.07-1.42-2.13-2.31-3.2-.36-.53-.89-1.07-1.24-1.6-1.07-1.07-2.13-2.13-3.37-3.02-.36-.35-.71-.53-1.07-.89-1.6-1.07-3.37-1.95-5.15-2.66-.36-.18-.89-.18-1.42-.36-1.42-.53-2.84-.89-4.44-1.07-.71-.18-1.42-.18-2.13-.18-1.42-.18-2.84-.18-4.26,0-.53,0-1.07,0-1.78.18-1.95.36-4.08.71-6.04,1.42l-65.34,24.86-18.11,6.92-97.83,37.29-18.11,6.92-92.15,35.16-18.11,6.92-56.64,21.66-11.54,4.44-7.99,3.02-10.12,3.73v696.36s0,0,0,0c41.21-114.18,116.98-294.7,63.75-537.98,0,0,100.32,122.34,98.01,246.98,0,0,152.7-81.5,238.28-29.12,0,0-.02,0-.06.01-4.24.92-247.87,54.49-383.6,314.73.05,0,28.19-10.23,28.19-10.23l71.73-26.28,298.47-109.2c10.65-3.91,17.93-14.2,17.93-25.57V185.12c0-2.13-.36-4.26-.71-6.39Zm-206.5,477.98c-30.89,0-55.93-25.04-55.93-55.93s25.04-55.93,55.93-55.93,55.93,25.04,55.93,55.93c.18,30.89-24.86,55.93-55.93,55.93Z"/><path class="uuid-a4bb9bac-c19f-44a7-9091-95d6c2262ef3" d="m116.32,582.49c114.52-38,227.98,39.77,227.98,39.77-3.37-124.47,88.6-262.43,88.6-262.43-44.03,198.33,36.93,528.94,78.12,644.17.35,1.06.71,1.94,1.06,3,0,0,0-.01,0-.01V310.65l-9.06-3.55-.36-.18-.71-.18-7.99-3.02-11.54-4.44-56.64-21.66-18.11-6.92-91.97-35.16-18.11-6.92-97.83-37.29-18.11-6.92-65.34-24.86c-1.95-.71-4.08-1.24-6.04-1.42-.53,0-1.07-.18-1.78-.18-1.42-.18-2.84,0-4.26,0-.71,0-1.42.18-2.13.18-1.42.18-3.02.71-4.44,1.07-.53.18-.89.18-1.42.36-1.78.71-3.55,1.6-5.15,2.66-.36.18-.71.53-1.07.89-1.24.89-2.31,1.95-3.37,3.02-.53.53-.89,1.07-1.24,1.6-.89,1.07-1.6,2.13-2.31,3.2-.36.53-.71,1.24-1.07,1.95-.53,1.24-1.07,2.49-1.6,3.91-.18.71-.36,1.24-.53,1.95-.53,1.95-.71,4.08-.71,6.39v644.88c0,11.36,7.1,21.66,17.93,25.57l395.42,144.88c-154.3-382.63-376.24-417.96-376.24-417.96Zm154.12-149.68c30.89,0,55.93,25.04,55.93,55.93s-25.04,55.93-55.93,55.93-55.93-25.21-55.93-55.93,25.04-55.93,55.93-55.93Z"/></svg>