<?xml version="1.0" encoding="utf-8"?>
<!-- Generator: Adobe Illustrator 27.7.0, SVG Export Plug-In . SVG Version: 6.00 Build 0)  -->
<svg version="1.1" id="Layer_1" xmlns="http://www.w3.org/2000/svg" xmlns:xlink="http://www.w3.org/1999/xlink" x="0px" y="0px"
	 viewBox="0 0 513.2 576" style="enable-background:new 0 0 513.2 576;" xml:space="preserve">
<style type="text/css">
	.st0{fill:none;}
	.st1{fill:#9BA26D;}
	.st2{fill:#BECC63;}
	.st3{fill:#FFFFFF;}
</style>
<g>
	<g>
		<polygon class="st0" points="260.6,177.9 256.6,180.9 256.6,180.9 		"/>
		<polygon class="st0" points="256.6,196.6 260.6,177.9 256.6,196.6 		"/>
		<path class="st0" d="M256.6,567.1L256.6,567.1L256.6,567.1C256.6,567.1,256.6,567.1,256.6,567.1z"/>
		<path class="st0" d="M300.3,8.9c-0.2,0-0.4,0.1-0.6,0.1c0.3,0,0.6-0.1,0.9,0C300.5,8.9,300.4,8.9,300.3,8.9z"/>
		<path class="st0" d="M212.9,8.9c-0.1,0-0.2,0-0.3,0.1c0.3,0,0.6,0,0.9,0C213.3,8.9,213.1,8.9,212.9,8.9z"/>
		<path class="st0" d="M427.6,52.3c-0.1,0-0.1,0-0.2,0c0.1,0,0.3,0,0.4,0C427.8,52.3,427.7,52.3,427.6,52.3z"/>
		<path class="st0" d="M362.3,26.8c-0.1,0-0.1,0-0.2,0C362.2,26.8,362.3,26.8,362.3,26.8C362.4,26.8,362.3,26.8,362.3,26.8z"/>
		<path class="st0" d="M150.9,26.8C150.8,26.8,150.8,26.8,150.9,26.8c0,0,0.1,0,0.2,0C151,26.8,150.9,26.8,150.9,26.8z"/>
		<path class="st0" d="M485,88.5c-0.4,0-0.8,0.1-1.1,0.1c0.8-0.1,1.6,0,2.4,0C485.8,88.6,485.4,88.5,485,88.5z"/>
		<path class="st0" d="M85.6,52.3c-0.1,0-0.2,0-0.3,0.1c0.1,0,0.3,0,0.4,0C85.7,52.3,85.6,52.3,85.6,52.3z"/>
		<path class="st0" d="M28.2,88.5c-0.4,0-0.8,0.1-1.3,0.1c0.8-0.1,1.6-0.1,2.4,0C29,88.6,28.6,88.5,28.2,88.5z"/>
		<path class="st1" d="M217.6,12.6c-0.2-0.7-0.4-1.2-0.8-1.7c-0.1-0.2-0.3-0.3-0.4-0.4c-0.3-0.3-0.5-0.6-0.8-0.8
			c-0.2-0.1-0.4-0.2-0.6-0.3c-0.3-0.1-0.6-0.3-0.9-0.4C213.9,9,213.7,9,213.5,9c-0.3,0-0.6-0.1-0.9,0c-0.3,0-0.7,0.1-1,0.2
			c-0.2,0.1-0.5,0.1-0.7,0.2c-0.3,0.1-0.6,0.3-0.9,0.5c-0.2,0.1-0.4,0.2-0.6,0.4c-0.3,0.3-0.5,0.6-0.7,1c-0.1,0.2-0.3,0.3-0.3,0.5
			c-0.2,0.6-0.4,1.2-0.4,2V85l42.1,55.6L217.6,12.6z"/>
		<path class="st2" d="M305.2,13.7c0-0.8-0.2-1.4-0.4-2c-0.1-0.2-0.2-0.3-0.3-0.5c-0.2-0.4-0.4-0.7-0.7-1c-0.2-0.2-0.4-0.3-0.6-0.4
			c-0.3-0.2-0.6-0.4-0.9-0.5c-0.2-0.1-0.5-0.1-0.7-0.2c-0.3-0.1-0.7-0.2-1-0.2c-0.3,0-0.6,0-0.9,0c-0.2,0-0.4,0-0.7,0.1
			c-0.3,0.1-0.6,0.2-0.9,0.4c-0.2,0.1-0.4,0.2-0.6,0.3c-0.3,0.2-0.6,0.5-0.8,0.8c-0.1,0.1-0.3,0.2-0.4,0.4c-0.3,0.5-0.6,1-0.8,1.7
			l-32.5,128.1L305.2,85V13.7z"/>
		<path class="st1" d="M208,131.2l42.3,31.1L208,102.4l-2.3-3.2l-7.9-10.9l-43.1-59.5c0,0,0,0,0,0c-0.5-0.6-1-1-1.6-1.4
			c-0.2-0.1-0.3-0.2-0.5-0.2c-0.5-0.2-1.1-0.4-1.7-0.4c-0.1,0-0.1,0-0.2,0c-0.6,0-1.1,0.1-1.6,0.3c-0.1,0.1-0.3,0.1-0.4,0.2
			c-0.4,0.2-0.7,0.4-1,0.6c-0.1,0.1-0.3,0.3-0.4,0.4c-0.3,0.3-0.5,0.6-0.7,1c-0.1,0.2-0.2,0.3-0.3,0.5c-0.2,0.6-0.4,1.2-0.4,1.9
			v52.4l51.9,39.4L208,131.2z"/>
		<path class="st2" d="M315.4,123.4l51.9-39.4V31.7c0-0.7-0.2-1.3-0.4-1.9c-0.1-0.2-0.2-0.3-0.3-0.5c-0.2-0.4-0.4-0.7-0.7-1
			c-0.1-0.1-0.3-0.3-0.4-0.4c-0.3-0.3-0.7-0.5-1-0.6c-0.1-0.1-0.3-0.2-0.4-0.2c-0.5-0.2-1.1-0.3-1.6-0.3c-0.1,0-0.1,0-0.2,0
			c-0.6,0-1.1,0.2-1.7,0.4c-0.2,0.1-0.3,0.1-0.5,0.2c-0.6,0.3-1.1,0.7-1.6,1.4c0,0,0,0,0,0l-43.1,59.5l-7.9,10.9l-2.3,3.2v28.7
			L315.4,123.4z"/>
		<polygon class="st2" points="305.2,102.4 262.9,162.3 305.2,131.2 		"/>
		<polygon class="st2" points="305.2,102.4 305.2,102.4 305.2,102.4 		"/>
		<polygon class="st2" points="305.2,131.2 305.2,131.2 305.2,131.2 		"/>
		<rect x="305.2" y="102.4" class="st2" width="0" height="28.7"/>
		<polygon class="st1" points="211,146.2 208,144 208,145.1 		"/>
		<path class="st1" d="M146,121.4l51.9,19.8l10.2,3.9V144l-10.2-7.7L146,96.9l-10.2-7.7L88.5,53.3c-0.4-0.3-0.9-0.6-1.4-0.7
			c-0.2-0.1-0.3-0.1-0.5-0.1c-0.3-0.1-0.6-0.1-0.9-0.2c-0.1,0-0.3,0-0.4,0c-0.4,0-0.9,0.1-1.3,0.3c-0.1,0-0.3,0.1-0.4,0.1
			c-0.5,0.2-1,0.5-1.4,0.9c-0.1,0.1-0.1,0.1-0.2,0.2c-0.3,0.3-0.6,0.7-0.8,1.2c-0.1,0.1-0.1,0.3-0.2,0.4c-0.2,0.5-0.4,1.1-0.4,1.8
			c0,0,0,0,0,0v0v39.4l55.1,21L146,121.4z"/>
		<rect x="305.2" y="144" width="0" height="1.1"/>
		<polygon class="st2" points="302.2,146.2 305.2,145.1 305.2,144 		"/>
		<path class="st2" d="M315.4,136.2l-10.2,7.7v1.1l10.2-3.9l51.9-19.8l10.2-3.9l55.1-21V57.1c0,0,0,0,0,0c0,0,0,0,0,0
			c0-0.6-0.2-1.2-0.4-1.8c-0.1-0.1-0.1-0.3-0.2-0.4c-0.2-0.4-0.5-0.8-0.8-1.2c-0.1-0.1-0.1-0.1-0.2-0.2c-0.4-0.4-0.9-0.7-1.4-0.9
			c-0.1-0.1-0.3-0.1-0.4-0.1c-0.4-0.1-0.9-0.2-1.3-0.3c-0.1,0-0.3,0-0.4,0c-0.3,0-0.6,0.1-0.9,0.2c-0.2,0-0.3,0-0.5,0.1
			c-0.5,0.2-0.9,0.4-1.4,0.7l-47.3,35.9l-10.2,7.7L315.4,136.2z"/>
		<rect x="243.1" y="166.6" transform="matrix(0.6046 -0.7965 0.7965 0.6046 -39.7948 261.1287)" width="0" height="8.2"/>
		<polygon points="248.2,174.5 246.4,173.1 246.4,173.1 		"/>
		<polygon points="252.6,177.9 256.6,196.6 256.6,196.6 		"/>
		<polygon points="256.6,180.9 252.6,177.9 256.6,180.9 		"/>
		<polygon class="st2" points="256.6,196.6 256.6,196.6 256.6,196.6 260.6,177.9 256.6,180.9 		"/>
		<rect x="256.6" y="196.6" transform="matrix(0.9701 -0.2425 0.2425 0.9701 -40.0108 68.1013)" class="st2" width="0" height="0"/>
		<path class="st2" d="M499.5,99.3c-0.2-0.8-0.5-1.5-0.9-2.2c-0.2-0.4-0.4-0.7-0.6-1.1c-0.4-0.6-0.8-1.2-1.3-1.8
			c-0.2-0.3-0.5-0.6-0.7-0.9c-0.6-0.6-1.2-1.2-1.9-1.7c-0.2-0.2-0.4-0.3-0.6-0.5c-0.9-0.6-1.9-1.1-2.9-1.5c-0.2-0.1-0.5-0.1-0.8-0.2
			c-0.8-0.3-1.6-0.5-2.5-0.6c-0.4-0.1-0.8-0.1-1.2-0.1c-0.8-0.1-1.6-0.1-2.4,0c-0.3,0-0.6,0-1,0.1c-1.1,0.2-2.3,0.4-3.4,0.8
			l-36.8,14l-10.2,3.9l-55.1,21l-10.2,3.9l-51.9,19.8l-10.2,3.9h0l-31.9,12.2l-6.5,5l-1.8,1.3v0l1.8-1.3l6.5-5l-6.5,2.5l-4.5,1.7
			l-0.4,0.1l-0.2,0.1l-5.1,1.9v6.3v0v0.1l4-3l-4,18.7v370.5h0v0c0,0,0,0,0,0c23.2-64.3,65.9-166.2,35.9-303.4
			c0,0,56.5,68.9,55.2,139.1c0,0,86-45.9,134.2-16.4c0,0-139,29.3-216.1,177.3l0.9-0.3l3.3-1.2l11.7-4.3l40.4-14.8l168.1-61.5
			c6-2.2,10.1-8,10.1-14.4V103.9c0-1.2-0.2-2.4-0.4-3.6C499.8,100,499.6,99.6,499.5,99.3z M383.3,369.5c-17.4,0-31.5-14.1-31.5-31.5
			c0-17.4,14.1-31.5,31.5-31.5s31.5,14.1,31.5,31.5C414.9,355.4,400.8,369.5,383.3,369.5z"/>
		<rect x="256.6" y="180.9" class="st2" width="0" height="0"/>
		<polygon class="st1" points="256.6,180.9 252.6,177.9 256.6,196.6 256.6,180.9 256.6,180.9 256.6,180.9 256.6,180.9 		"/>
		
			<rect x="256.6" y="180.9" transform="matrix(0.2425 -0.9701 0.9701 0.2425 11.253 391.895)" class="st1" width="0" height="15.6"/>
		<rect x="256.6" y="180.9" class="st1" width="0" height="0.1"/>
		<polygon class="st1" points="256.6,180.9 256.6,174.6 256.6,174.6 256.6,174.6 251.5,172.6 252.6,177.9 		"/>
		<path class="st1" d="M33.7,327.8c64.5-21.4,128.4,22.4,128.4,22.4c-1.9-70.1,49.9-147.8,49.9-147.8c-24.8,111.7,20.8,298,44,362.9
			c0.2,0.6,0.4,1.1,0.6,1.7l0,0V196.6l0,0v0l0,0v-0.1l-4-18.7l-2.1-1.6v0l2.1,1.6l-1.1-5.2l-0.2-0.1l-0.4-0.1l-4.5-1.7l-6.5-2.5
			l6.5,5l1.8,1.3l-1.8-1.3l-6.5-5L208,156l-10.2-3.9L146,132.3l-10.2-3.9l-55.1-21l-10.2-3.9l-36.8-14c-1.1-0.4-2.3-0.7-3.4-0.8
			c-0.3,0-0.6-0.1-1-0.1c-0.8-0.1-1.6,0-2.4,0c-0.4,0-0.8,0.1-1.2,0.1c-0.8,0.1-1.7,0.4-2.5,0.6c-0.3,0.1-0.5,0.1-0.8,0.2
			c-1,0.4-2,0.9-2.9,1.5c-0.2,0.1-0.4,0.3-0.6,0.5c-0.7,0.5-1.3,1.1-1.9,1.7c-0.3,0.3-0.5,0.6-0.7,0.9c-0.5,0.6-0.9,1.2-1.3,1.8
			c-0.2,0.3-0.4,0.7-0.6,1.1c-0.3,0.7-0.6,1.4-0.9,2.2c-0.1,0.4-0.2,0.7-0.3,1.1c-0.3,1.1-0.4,2.3-0.4,3.6v363.3
			c0,6.4,4,12.2,10.1,14.4l222.7,81.6C158.7,347.7,33.7,327.8,33.7,327.8z M120.5,243.4c17.4,0,31.5,14.1,31.5,31.5
			c0,17.4-14.1,31.5-31.5,31.5S89,292.3,89,274.9C89,257.5,103.1,243.4,120.5,243.4z"/>
		<polygon class="st1" points="250.5,176.2 252.6,177.9 250.5,176.2 		"/>
		<rect x="256.6" y="196.6" class="st1" width="0" height="0.1"/>
		<rect x="256.6" y="174.6" class="st1" width="0" height="6.3"/>
		<rect x="256.6" y="196.6" class="st1" width="0" height="370.5"/>
		<path class="st3" d="M256.6,567.1C256.6,567.1,256.6,567.1,256.6,567.1L256.6,567.1C256.6,567.1,256.6,567.1,256.6,567.1z"/>
		<path class="st3" d="M256.6,567.1C256.6,567.1,256.6,567.1,256.6,567.1C256.6,567.1,256.6,567.1,256.6,567.1L256.6,567.1z"/>
	</g>
</g>
</svg>
