<svg version="1.1" id="Layer_1" xmlns="http://www.w3.org/2000/svg" x="0" y="0" viewBox="0 0 792 180" style="enable-background:new 0 0 792 180" xml:space="preserve"><style>.st0{fill:none}.st1{fill:#fff}.st2{fill:#9ba26d}.st3{fill:#becc63}</style><path class="st0" d="M77.6 171zM143.9 32.1h-.3.7-.4z"/><path class="st1" d="M77.6 171zM77.6 171z"/><path class="st2" d="M66.3 9.8c-.1-.2-.1-.3-.2-.5 0-.1-.1-.1-.1-.1l-.2-.2c-.1 0-.1-.1-.2-.1s-.2-.1-.3-.1h-.5c-.1 0-.2 0-.3.1-.1 0-.1 0-.2.1-.1 0-.2.1-.3.1.1-.1 0 0 0 0-.1.1-.1.2-.2.3 0 .1-.1.1-.1.1-.1.2-.1.3-.1.6v20.7l12.2 16.1-9.5-37.1z"/><path class="st3" d="M91.8 10.1c0-.2-.1-.4-.1-.6 0-.1-.1-.1-.1-.1-.1-.1-.1-.2-.2-.3-.1-.1-.2-.1-.2-.1-.1-.1-.2-.1-.3-.1-.1 0-.1 0-.2-.1-.1 0-.2-.1-.3-.1h-.5c-.1 0-.2.1-.3.1-.1 0-.1.1-.2.1-.1.1-.2.1-.2.2l-.1.1c-.1.1-.2.3-.2.5L79.5 47l12.2-16.2V10.1z"/><path class="st2" d="m63.6 44.2 12.3 9-12.3-17.3-.7-.9-2.3-3.2-12.5-17.3c-.1-.2-.3-.3-.5-.4-.1 0-.1-.1-.1-.1-.1-.1-.3-.1-.5-.1h-.1c-.2 0-.3 0-.5.1 0 0-.1 0-.1.1-.1.1-.2.1-.3.2l-.1.1c-.1.1-.1.2-.2.3 0 .1-.1.1-.1.1-.1.2-.1.3-.1.6v15.2L60.6 42l3 2.2zM64.5 48.6l-.9-.6-3-2.2-15-11.5-3-2.2-13.7-10.5c-.1-.1-.3-.2-.4-.2h-.1c-.1 0-.2 0-.3-.1H28c-.1 0-.3 0-.4.1h-.1c-.1.1-.3.1-.4.3l-.1.1c-.1.1-.2.2-.2.3 0 0 0 .1-.1.1-.1.1-.1.3-.1.5v11.4l16 6.1 3 1.1L60.7 47l3 1.1.8.5z"/><path class="st3" d="M128.6 22.2s0-.1-.1-.1c-.1-.1-.1-.2-.2-.3l-.1-.1c-.1-.1-.3-.2-.4-.3h-.1c-.1 0-.3-.1-.4-.1h-.1c-.1 0-.2 0-.3.1h-.1c-.1.1-.3.1-.4.2L112.7 32l-3 2.2-15 11.4-3 2.2-.9.6.9-.3 3-1.1 15.1-5.7 3-1.1 16-6.1V22.7c-.1-.2-.1-.3-.2-.5zM109.7 14.8c0-.1-.1-.1-.1-.1-.1-.1-.1-.2-.2-.3l-.1-.1c-.1-.1-.2-.1-.3-.2l-.1-.1c-.1-.1-.3-.1-.5-.1h-.1c-.2 0-.3.1-.5.1-.1 0-.1 0-.1.1-.2.1-.3.2-.5.4L94.7 31.8 92.4 35l-.7.9-12.2 17.3 12.3-9 3-2.2 15.1-11.4V15.3c-.1-.2-.2-.3-.2-.5zM148.2 35.2c.1-.1 0-.2 0-.3-.1-.2-.1-.4-.3-.6-.1-.1-.1-.2-.2-.3-.1-.2-.2-.3-.4-.5-.1-.1-.1-.2-.2-.3-.2-.2-.3-.3-.6-.5-.1-.1-.1-.1-.2-.1-.3-.2-.6-.3-.8-.4-.1 0-.1 0-.2-.1-.2-.1-.5-.1-.7-.2h-1.3c-.3.1-.7.1-1 .2l-10.7 4.1-3 1.1-16 6.1-3 1.1-15.1 5.7-3 1.1-9 3.7-1.9.7-1.3.5-1.7.6V170.5c6.7-18.7 19.1-48.2 10.4-87.9 0 0 16.4 20 16 40.4 0 0 24.9-13.3 38.9-4.8-.7.1-40.5 8.9-62.7 51.4l4.6-1.7 11.7-4.3 48.8-17.8c1.7-.6 2.9-2.3 2.9-4.2V36.3c.2-.4.1-.7 0-1.1zm-33.7 78.1c-5 0-9.1-4.1-9.1-9.1s4.1-9.1 9.1-9.1 9.1 4.1 9.1 9.1c.1 5-4 9.1-9.1 9.1z"/><path class="st2" d="M13 101.2c18.7-6.2 37.2 6.5 37.2 6.5-.6-20.3 14.5-42.9 14.5-42.9-7.2 32.4 6 86.4 12.8 105.3.1.2.1.3.2.5V56.9l-1.5-.6H76l-1.3-.5-1.9-.7-9.3-3.5-3-1.1-15-5.7-3-1.1-16-6.1-3-1.1L13 32.1c-.3-.1-.7-.2-1-.2h-1.3c-.2 0-.5.1-.7.2-.1 0-.1 0-.2.1-.3.1-.6.3-.8.4-.1 0-.1.1-.2.1-.2.1-.4.3-.6.5-.1.1-.1.2-.2.3-.1.2-.3.3-.4.5-.1.1-.1.2-.2.3l-.3.6c0 .1-.1.2-.1.3-.1.3-.1.7-.1 1v105.4c0 1.9 1.2 3.5 2.9 4.2l64.6 23.7C49.3 107 13 101.2 13 101.2zm25.2-24.4c5 0 9.1 4.1 9.1 9.1S43.2 95 38.2 95 29 90.9 29 85.9s4.1-9.1 9.2-9.1z"/></svg>