<?xml version="1.0" encoding="utf-8"?>
<!-- Generator: Adobe Illustrator 28.0.0, SVG Export Plug-In . SVG Version: 6.00 Build 0)  -->
<svg version="1.1" id="Layer_1" xmlns="http://www.w3.org/2000/svg" xmlns:xlink="http://www.w3.org/1999/xlink" x="0px" y="0px"
	 viewBox="0 0 792 180" style="enable-background:new 0 0 792 180;" xml:space="preserve">
<style type="text/css">
	.st0{fill:none;}
	.st1{fill:#FFFFFF;}
	.st2{fill:#9BA26D;}
	.st3{fill:#BECC63;}
</style>
<g>
	<g>
		<path d="M198.6,119c-3.1-1.4-5.5-3.3-7.3-5.8s-2.7-5.3-2.7-8.6h8.3c0.3,2.8,1.4,5.1,3.5,7c2,1.9,5,2.9,8.8,2.9
			c3.7,0,6.6-0.9,8.7-2.8c2.1-1.8,3.2-4.2,3.2-7.1c0-2.3-0.6-4.1-1.9-5.5c-1.3-1.4-2.8-2.5-4.7-3.2s-4.4-1.5-7.6-2.4
			c-3.9-1-7.1-2-9.4-3.1c-2.4-1-4.4-2.6-6.1-4.8c-1.7-2.2-2.5-5.1-2.5-8.8c0-3.2,0.8-6.1,2.5-8.6c1.6-2.5,4-4.4,6.9-5.8
			c3-1.4,6.4-2,10.3-2c5.6,0,10.1,1.4,13.7,4.2c3.6,2.8,5.6,6.5,6,11.1h-8.5c-0.3-2.3-1.5-4.3-3.6-6s-4.9-2.6-8.4-2.6
			c-3.2,0-5.9,0.8-7.9,2.5s-3.1,4-3.1,7c0,2.2,0.6,3.9,1.8,5.3s2.7,2.4,4.5,3.1s4.3,1.5,7.5,2.4c3.9,1.1,7.1,2.1,9.5,3.2
			s4.4,2.7,6.1,4.9s2.6,5.2,2.6,8.9c0,2.9-0.8,5.6-2.3,8.2s-3.8,4.6-6.8,6.2s-6.6,2.4-10.7,2.4C205.2,121.1,201.7,120.4,198.6,119z"
			/>
		<path d="M236.9,84.4c1.9-3.6,4.6-6.4,8.1-8.4c3.4-2,7.4-3,11.8-3c5.7,0,10.5,1.4,14.2,4.2c3.7,2.8,6.2,6.6,7.4,11.6H270
			c-0.8-2.8-2.3-5.1-4.6-6.7c-2.3-1.6-5.2-2.5-8.6-2.5c-4.4,0-8,1.5-10.7,4.6c-2.7,3-4.1,7.3-4.1,12.9s1.4,10,4.1,13
			c2.7,3.1,6.3,4.6,10.7,4.6c3.4,0,6.3-0.8,8.5-2.4c2.3-1.6,3.8-3.9,4.7-6.8h8.4c-1.3,4.8-3.8,8.6-7.5,11.5
			c-3.8,2.9-8.4,4.3-14.1,4.3c-4.4,0-8.4-1-11.8-3c-3.4-2-6.1-4.8-8.1-8.4c-1.9-3.6-2.9-7.9-2.9-12.8C234,92.2,235,88,236.9,84.4z"
			/>
		<path d="M298.9,75.2c2.5-1.5,5.6-2.2,9.2-2.2v8h-2c-8.7,0-13,4.7-13,14.1v25.4h-7.8V73.8h7.8v7.6
			C294.4,78.7,296.3,76.6,298.9,75.2z"/>
		<path d="M315.6,64.7c-1-1-1.5-2.3-1.5-3.7s0.5-2.7,1.5-3.8c1-1,2.3-1.5,3.7-1.5c1.4,0,2.6,0.5,3.6,1.5s1.5,2.3,1.5,3.8
			s-0.5,2.7-1.5,3.7s-2.2,1.5-3.6,1.5C317.9,66.2,316.6,65.7,315.6,64.7z M323.1,73.8v46.7h-7.8V73.8H323.1z"/>
		<path d="M347.5,75.7c3-1.8,6.6-2.7,10.6-2.7c4.1,0,7.9,1,11.3,3s6,4.8,8,8.4c1.9,3.6,2.9,7.8,2.9,12.6c0,4.7-1,8.9-2.9,12.6
			s-4.6,6.6-8,8.6s-7.1,3.1-11.3,3.1c-4,0-7.5-0.9-10.5-2.7c-3-1.8-5.4-4-6.9-6.7v30.8h-7.8V73.8h7.8v8.6
			C342.2,79.7,344.5,77.5,347.5,75.7z M370.2,87.8c-1.4-2.6-3.3-4.6-5.8-6c-2.4-1.4-5.1-2-8-2c-2.8,0-5.5,0.7-7.9,2.1
			s-4.3,3.4-5.8,6.1c-1.4,2.6-2.2,5.7-2.2,9.2s0.7,6.6,2.2,9.2c1.4,2.6,3.4,4.7,5.8,6.1s5,2.1,7.9,2.1s5.6-0.7,8-2.1
			s4.3-3.4,5.8-6.1c1.4-2.6,2.1-5.8,2.1-9.3C372.4,93.4,371.7,90.4,370.2,87.8z"/>
		<path d="M394.9,80.2v27.5c0,2.3,0.5,3.9,1.4,4.8c1,0.9,2.6,1.4,5,1.4h5.7v6.6h-7c-4.3,0-7.6-1-9.7-3c-2.2-2-3.2-5.3-3.2-9.8V80.2
			H381v-6.4h6.1V62h7.8v11.8h12.2v6.4C407.1,80.2,394.9,80.2,394.9,80.2z"/>
		<path d="M456.2,73.8v46.7h-7.8v-6.9c-1.5,2.4-3.5,4.2-6.2,5.6c-2.6,1.3-5.6,2-8.7,2c-3.6,0-6.9-0.8-9.8-2.3s-5.2-3.8-6.9-6.8
			c-1.7-3-2.5-6.7-2.5-11V73.8h7.7v26.3c0,4.6,1.2,8.1,3.5,10.6s5.5,3.7,9.5,3.7c4.1,0,7.4-1.3,9.8-3.8c2.4-2.6,3.6-6.3,3.6-11.2
			V73.8H456.2z"/>
		<path d="M477.8,75.2c2.5-1.5,5.6-2.2,9.2-2.2v8h-2c-8.7,0-13,4.7-13,14.1v25.4h-7.8V73.8h7.8v7.6
			C473.3,78.7,475.2,76.6,477.8,75.2z"/>
		<path d="M534.9,100h-37.3c0.3,4.6,1.9,8.2,4.7,10.8c2.9,2.6,6.4,3.9,10.4,3.9c3.4,0,6.1-0.8,8.4-2.3c2.2-1.6,3.8-3.7,4.7-6.3h8.4
			c-1.3,4.5-3.8,8.1-7.5,11c-3.8,2.8-8.4,4.2-14,4.2c-4.4,0-8.4-1-11.9-3s-6.2-4.8-8.2-8.5s-3-7.9-3-12.7c0-4.8,1-9.1,2.9-12.7
			s4.6-6.4,8.1-8.4s7.5-2.9,12.1-2.9c4.4,0,8.4,1,11.8,2.9c3.4,1.9,6,4.6,7.9,8c1.8,3.4,2.8,7.2,2.8,11.5
			C535.2,96.8,535.1,98.4,534.9,100z M525.2,86.1c-1.3-2.1-3.1-3.8-5.3-4.9s-4.7-1.7-7.5-1.7c-3.9,0-7.3,1.3-10,3.8
			c-2.8,2.5-4.3,6-4.7,10.4h29.5C527.2,90.8,526.5,88.2,525.2,86.1z"/>
		<path d="M590.8,60.7v11.7h-24.4V85h18.2v11.3h-18.2v24.2h-14.6V60.7H590.8z"/>
		<path d="M604.1,118.2c-3.7-2-6.6-4.8-8.8-8.5c-2.1-3.7-3.2-8-3.2-13c0-4.9,1.1-9.2,3.2-12.9c2.2-3.7,5.1-6.6,8.9-8.6
			c3.7-2,8-3,12.6-3s8.9,1,12.6,3c3.8,2,6.7,4.8,8.9,8.6c2.2,3.7,3.2,8,3.2,12.9s-1.1,9.2-3.3,12.9c-2.2,3.7-5.2,6.6-8.9,8.6
			c-3.8,2-8,3-12.7,3S607.8,120.2,604.1,118.2z M623.8,105.5c2-2,2.9-5,2.9-8.8s-1-6.7-2.9-8.8c-1.9-2-4.2-3.1-7-3.1s-5.2,1-7.1,3
			c-1.9,2-2.8,5-2.8,8.8s0.9,6.7,2.8,8.8c1.8,2,4.2,3.1,6.9,3.1C619.5,108.6,621.9,107.5,623.8,105.5z"/>
		<path d="M668.6,74.7c2.6-1.5,5.4-2.3,8.5-2.3v15.4h-4c-3.6,0-6.4,0.8-8.2,2.3c-1.8,1.6-2.7,4.3-2.7,8.2v22.1h-14.6V72.9h14.6v7.9
			C663.9,78.2,666.1,76.2,668.6,74.7z"/>
		<path d="M711,74.3c2.5,1.4,4.5,3.2,5.8,5.4V73h14.6v47.5c0,4.4-0.9,8.3-2.6,11.9c-1.7,3.6-4.4,6.4-7.9,8.5
			c-3.6,2.1-8,3.2-13.3,3.2c-7,0-12.8-1.7-17.1-5c-4.4-3.3-6.9-7.8-7.5-13.5h14.4c0.5,1.8,1.5,3.3,3.2,4.3c1.7,1.1,3.8,1.6,6.3,1.6
			c3,0,5.4-0.9,7.2-2.6c1.8-1.7,2.7-4.5,2.7-8.3v-6.7c-1.4,2.2-3.4,4-5.9,5.4s-5.4,2.1-8.8,2.1c-3.9,0-7.5-1-10.7-3
			s-5.7-4.9-7.5-8.6s-2.8-8-2.8-12.9s0.9-9.2,2.8-12.9c1.8-3.7,4.4-6.5,7.5-8.5c3.2-2,6.7-3,10.7-3C705.5,72.3,708.5,72.9,711,74.3z
			 M713.8,88.1c-2-2.1-4.5-3.2-7.4-3.2s-5.4,1-7.4,3.1s-3,4.9-3,8.6c0,3.6,1,6.5,3,8.7c2,2.1,4.5,3.2,7.4,3.2s5.4-1.1,7.4-3.2
			s3-5,3-8.6S715.8,90.2,713.8,88.1z"/>
		<path d="M784.9,100.2h-33c0.2,3,1.2,5.2,2.9,6.8c1.7,1.6,3.7,2.3,6.2,2.3c3.6,0,6.2-1.5,7.6-4.6H784c-0.8,3.1-2.2,5.9-4.3,8.4
			s-4.7,4.5-7.8,5.9s-6.6,2.1-10.5,2.1c-4.7,0-8.8-1-12.4-3c-3.6-2-6.5-4.8-8.5-8.5s-3.1-8-3.1-13c0-4.9,1-9.3,3-13s4.8-6.5,8.5-8.5
			c3.6-2,7.8-3,12.5-3c4.6,0,8.7,1,12.3,2.9s6.4,4.7,8.4,8.3c2,3.6,3,7.8,3,12.5C785.1,97.3,785,98.7,784.9,100.2z M770.2,92.1
			c0-2.5-0.9-4.5-2.6-6c-1.7-1.5-3.8-2.2-6.4-2.2c-2.4,0-4.5,0.7-6.2,2.1s-2.7,3.4-3.1,6.1H770.2z"/>
	</g>
	<path class="st0" d="M77.6,171L77.6,171L77.6,171z"/>
	<path class="st0" d="M143.9,32.1c-0.1,0-0.2,0-0.3,0c0.2,0,0.5,0,0.7,0C144.2,32.1,144.1,32.1,143.9,32.1z"/>
	<path class="st1" d="M77.6,171L77.6,171L77.6,171z"/>
	<path class="st1" d="M77.6,171L77.6,171L77.6,171z"/>
	<g>
		<path class="st2" d="M66.3,10.1c-0.1-0.2-0.1-0.3-0.2-0.5c0-0.1-0.1-0.1-0.1-0.1c-0.1-0.1-0.1-0.2-0.2-0.2c-0.1,0-0.1-0.1-0.2-0.1
			c-0.1,0-0.2-0.1-0.3-0.1c-0.1,0-0.1,0-0.2,0c-0.1,0-0.2,0-0.3,0c-0.1,0-0.2,0-0.3,0.1c-0.1,0-0.1,0-0.2,0.1
			c-0.1,0-0.2,0.1-0.3,0.1c-0.1,0-0.1,0.1-0.2,0.1c-0.1,0.1-0.1,0.2-0.2,0.3c0,0.1-0.1,0.1-0.1,0.1c-0.1,0.2-0.1,0.3-0.1,0.6v20.7
			l12.2,16.1L66.3,10.1z"/>
		<path class="st3" d="M91.7,10.4c0-0.2-0.1-0.4-0.1-0.6c0-0.1-0.1-0.1-0.1-0.1c-0.1-0.1-0.1-0.2-0.2-0.3c-0.1-0.1-0.1-0.1-0.2-0.1
			c-0.1-0.1-0.2-0.1-0.3-0.1c-0.1,0-0.1,0-0.2-0.1C90.6,9,90.5,9,90.4,9s-0.2,0-0.3,0C90,9,90,9,89.9,9c-0.1,0-0.2,0.1-0.3,0.1
			c-0.1,0-0.1,0.1-0.2,0.1c-0.1,0.1-0.2,0.1-0.2,0.2c0,0-0.1,0.1-0.1,0.1c-0.1,0.1-0.2,0.3-0.2,0.5l-9.4,37.2l12.2-16.2V10.4z"/>
		<path class="st2" d="M63.5,44.5l12.3,9L63.5,36.1l-0.7-0.9L60.5,32L48,14.8l0,0c-0.1-0.2-0.3-0.3-0.5-0.4c-0.1,0-0.1-0.1-0.1-0.1
			c-0.1-0.1-0.3-0.1-0.5-0.1c0,0,0,0-0.1,0c-0.2,0-0.3,0-0.5,0.1c0,0-0.1,0-0.1,0.1c-0.1,0.1-0.2,0.1-0.3,0.2c0,0-0.1,0.1-0.1,0.1
			c-0.1,0.1-0.1,0.2-0.2,0.3c0,0.1-0.1,0.1-0.1,0.1c-0.1,0.2-0.1,0.3-0.1,0.6v15.2l15.1,11.4L63.5,44.5z"/>
		<path class="st2" d="M64.4,48.8l-0.9-0.6v0l-3-2.2L45.5,34.5l-3-2.2L28.8,21.9c-0.1-0.1-0.3-0.2-0.4-0.2c-0.1,0-0.1,0-0.1,0
			c-0.1,0-0.2,0-0.3-0.1c0,0-0.1,0-0.1,0c-0.1,0-0.3,0-0.4,0.1c0,0-0.1,0-0.1,0c-0.1,0.1-0.3,0.1-0.4,0.3c0,0,0,0-0.1,0.1
			c-0.1,0.1-0.2,0.2-0.2,0.3c0,0,0,0.1-0.1,0.1c-0.1,0.1-0.1,0.3-0.1,0.5v11.4l16,6.1l3,1.1l15.1,5.7l3,1.1v0L64.4,48.8z"/>
		<path class="st3" d="M128.5,22.4c0,0,0-0.1-0.1-0.1c-0.1-0.1-0.1-0.2-0.2-0.3c0,0,0,0-0.1-0.1c-0.1-0.1-0.3-0.2-0.4-0.3
			c0,0-0.1,0-0.1,0c-0.1,0-0.3-0.1-0.4-0.1c0,0-0.1,0-0.1,0c-0.1,0-0.2,0-0.3,0.1c-0.1,0-0.1,0-0.1,0c-0.1,0.1-0.3,0.1-0.4,0.2
			l-13.7,10.4l-3,2.2l-15,11.4l-3,2.2v0l-0.9,0.6l0.9-0.3v0l3-1.1l15.1-5.7l3-1.1l16-6.1V23C128.7,22.8,128.6,22.6,128.5,22.4z"/>
		<path class="st2" d="M77.4,170.3c0.1,0.2,0.1,0.3,0.2,0.5V63.4v0v-4.5v-1.8l-1.5-0.6l-0.1,0l-0.1,0l-1.3-0.5l-1.9-0.7l-9.3-3.5
			l-3-1.1l-15-5.7l-3-1.1l-16-6.1l-3-1.1l-10.7-4.1c-0.3-0.1-0.7-0.2-1-0.2c-0.1,0-0.2,0-0.3,0c-0.2,0-0.5,0-0.7,0
			c-0.1,0-0.2,0-0.3,0c-0.2,0-0.5,0.1-0.7,0.2c-0.1,0-0.1,0-0.2,0.1c-0.3,0.1-0.6,0.3-0.8,0.4c-0.1,0-0.1,0.1-0.2,0.1
			c-0.2,0.1-0.4,0.3-0.6,0.5c-0.1,0.1-0.1,0.2-0.2,0.3c-0.1,0.2-0.3,0.3-0.4,0.5c-0.1,0.1-0.1,0.2-0.2,0.3c-0.1,0.2-0.2,0.4-0.3,0.6
			C7,35.3,7,35.4,7,35.5c-0.1,0.3-0.1,0.7-0.1,1v105.4c0,1.9,1.2,3.5,2.9,4.2l64.6,23.7"/>
		<circle class="st1" cx="38.1" cy="86.2" r="9.1"/>
		<path class="st3" d="M148.2,35.5c0.1-0.1,0-0.2,0-0.3c-0.1-0.2-0.1-0.4-0.3-0.6c-0.1-0.1-0.1-0.2-0.2-0.3
			c-0.1-0.2-0.2-0.3-0.4-0.5c-0.1-0.1-0.1-0.2-0.2-0.3c-0.2-0.2-0.3-0.3-0.6-0.5c-0.1-0.1-0.1-0.1-0.2-0.1c-0.3-0.2-0.6-0.3-0.8-0.4
			c-0.1,0-0.1,0-0.2-0.1c-0.2-0.1-0.5-0.1-0.7-0.2c-0.1,0-0.2,0-0.3,0c-0.2,0-0.5,0-0.7,0c-0.1,0-0.2,0-0.3,0
			c-0.3,0.1-0.7,0.1-1,0.2l-10.7,4.1l-3,1.1l-16,6.1l-3,1.1l-15.1,5.7l-3,1.1l-9.3,3.5L80.6,56l-1.3,0.5l-1.7,0.6v1.8v0V169l0,1.9
			l2.7-0.9c0,0,4.6-1.7,4.6-1.7l11.7-4.3l48.8-17.8c1.7-0.6,2.9-2.3,2.9-4.2V36.5C148.3,36.2,148.2,35.8,148.2,35.5z M141.6,118.9
			l0.1-1.1c0.5,0.2,0.9,0.5,1.3,0.7C143,118.5,142.5,118.6,141.6,118.9z"/>
		<g>
			<path class="st1" d="M114.4,113.6c5.1,0,9.2-4.1,9.1-9.1c0-5-4.1-9.1-9.1-9.1c-5,0-9.1,4.1-9.1,9.1
				C105.3,109.5,109.4,113.6,114.4,113.6z"/>
			<path class="st1" d="M104,123.3c0.4-20.4-16-40.4-16-40.4c8.7,39.7-3.7,69.2-10.4,87.9c-0.1-0.2-0.1-0.3-0.2-0.5
				c-6.7-18.8-20-72.8-12.8-105.3c0,0-15,22.5-14.5,42.9c0,0-18.5-12.7-37.2-6.5c0,0,36.3,5.8,61.5,68.3l0,0l0,0l3.2,1.2v0l0,0l0,0
				v0l2.7-1c22.4-42.9,62.7-51.4,62.7-51.4C129,110,104,123.3,104,123.3z"/>
		</g>
		<path class="st3" d="M109.6,15c0-0.1-0.1-0.1-0.1-0.1c-0.1-0.1-0.1-0.2-0.2-0.3c0,0-0.1-0.1-0.1-0.1c-0.1-0.1-0.2-0.1-0.3-0.2
			c0,0-0.1-0.1-0.1-0.1c-0.1-0.1-0.3-0.1-0.5-0.1c0,0,0,0-0.1,0c-0.2,0-0.3,0.1-0.5,0.1c-0.1,0-0.1,0-0.1,0.1
			c-0.2,0.1-0.3,0.2-0.5,0.4L94.7,32l-2.3,3.2l-0.7,0.9L79.4,53.5l12.3-9v0l3-2.2l15.1-11.4V15.6C109.7,15.4,109.7,15.2,109.6,15z"
			/>
	</g>
</g>
</svg>
